<svg xmlns="http://www.w3.org/2000/svg" xmlns:xlink="http://www.w3.org/1999/xlink" width="500" zoomAndPan="magnify" viewBox="0 0 375 374.999991" height="500" preserveAspectRatio="xMidYMid meet" version="1.0"><defs><clipPath id="0e2e437252"><path d="M 33 68 L 343 68 L 343 310.734375 L 33 310.734375 Z M 33 68 " clip-rule="nonzero"/></clipPath></defs><g clip-path="url(#0e2e437252)"><path fill="#000" d="M 55.949219 155.582031 C 52.921875 139.046875 61.941406 125.964844 73.554688 119.734375 C 78.5625 117.078125 84.492188 115.476562 90.609375 115.414062 C 94.933594 103.011719 104.015625 92.152344 115.445312 85.796875 C 125.144531 80.429688 135.894531 78.824219 145.902344 81.230469 C 172.28125 64.078125 226.957031 64.753906 247.222656 80.367188 C 251.917969 83.945312 254.757812 88.265625 255.746094 93.015625 C 266.621094 91.78125 278.113281 92.460938 287.871094 94.867188 C 302.515625 98.507812 313.015625 106.035156 318.207031 116.585938 C 320 120.164062 321.050781 123.929688 321.480469 127.691406 C 334.023438 129.359375 341.992188 138.984375 342.546875 153.609375 C 343.105469 167.183594 337.171875 181.929688 326.792969 190.691406 C 327.289062 205.808594 322.46875 218.582031 312.894531 227.714844 C 304.183594 235.980469 292.320312 240.363281 279.039062 240.363281 C 277.925781 240.363281 276.753906 240.300781 275.640625 240.238281 C 275.023438 243.199219 274.035156 245.605469 272.984375 247.519531 C 265.199219 262.328125 245.738281 269.855469 228.625 269.855469 C 226.957031 269.855469 225.351562 269.792969 223.746094 269.609375 C 201.6875 279.667969 184.636719 292.871094 173.023438 308.914062 C 172.21875 310.023438 170.921875 310.640625 169.625 310.640625 C 169.316406 310.640625 169.070312 310.640625 168.761719 310.582031 L 141.761719 304.902344 C 139.722656 304.472656 138.300781 302.683594 138.425781 300.585938 C 138.734375 293.488281 140.957031 281.210938 144.109375 272.078125 C 138.179688 273.3125 132.0625 273.929688 125.945312 273.929688 C 120.878906 273.929688 115.875 273.496094 110.996094 272.695312 C 86.960938 268.5625 71.519531 255.171875 69.601562 237.339844 C 67.6875 237.03125 65.894531 236.535156 64.226562 235.859375 C 46.125 228.269531 43.964844 218.890625 44.703125 213.152344 C 38.835938 210.4375 35.066406 205.5 34.015625 198.898438 C 31.855469 185.445312 41.925781 165.886719 55.949219 155.582031 Z M 147.074219 297.5 L 167.773438 301.820312 C 178.398438 287.933594 192.792969 276.148438 210.710938 266.648438 C 201.566406 263.007812 195.140625 256.40625 192.484375 247.703125 C 189.332031 247.519531 186.183594 246.902344 183.09375 246.039062 C 177.71875 257.082031 167.09375 264.796875 154.304688 269.300781 C 151.339844 274.976562 148.0625 288.429688 147.074219 297.5 Z M 112.417969 264.488281 C 116.742188 265.230469 121.1875 265.597656 125.761719 265.597656 C 146.210938 265.597656 167.339844 258.070312 175.183594 243.078125 C 171.847656 241.535156 168.761719 239.683594 165.980469 237.710938 C 159.0625 240.484375 151.277344 241.964844 143.492188 241.964844 C 129.28125 241.964844 115.195312 237.09375 106.671875 226.601562 C 98.332031 232.710938 87.703125 236.84375 78.191406 237.648438 C 80.910156 257.453125 104.753906 263.128906 112.417969 264.488281 Z M 42.355469 197.664062 C 42.914062 201.304688 44.765625 203.894531 47.917969 205.4375 C 51.316406 200.75 57.0625 196.800781 63.855469 194.148438 C 64.042969 181.621094 69.910156 166.503906 83.132812 160.023438 C 85.234375 158.976562 87.765625 159.839844 88.753906 161.9375 C 89.804688 164.035156 88.941406 166.566406 86.839844 167.550781 C 77.632812 172.058594 73.1875 182.363281 72.382812 191.679688 C 76.460938 190.875 80.660156 190.566406 84.863281 190.875 C 87.210938 191 88.941406 193.035156 88.816406 195.378906 C 88.691406 197.726562 86.652344 199.453125 84.304688 199.328125 C 79.054688 199.019531 73.867188 199.761719 69.292969 201.179688 C 69.230469 201.179688 69.230469 201.179688 69.171875 201.242188 C 61.449219 203.648438 55.453125 207.96875 53.539062 212.289062 C 53.539062 212.289062 53.539062 212.347656 53.539062 212.347656 C 53.355469 212.78125 53.230469 213.214844 53.105469 213.644531 C 51.933594 218.582031 57.183594 223.886719 67.441406 228.207031 C 69.171875 228.949219 71.207031 229.316406 73.433594 229.441406 C 73.496094 229.441406 73.554688 229.441406 73.617188 229.441406 C 73.679688 229.441406 73.742188 229.441406 73.867188 229.441406 C 85.851562 229.8125 103.027344 221.789062 109.945312 211.484375 C 114.578125 204.636719 113.898438 198.402344 107.90625 192.355469 C 106.238281 190.691406 106.300781 188.039062 107.90625 186.371094 C 109.574219 184.707031 112.230469 184.769531 113.898438 186.371094 C 122.671875 195.195312 123.722656 206.054688 116.925781 216.113281 C 115.753906 217.839844 114.457031 219.445312 112.972656 220.988281 C 122.671875 233.203125 142.75 235.980469 158.628906 231.230469 C 158.441406 230.984375 158.195312 230.796875 158.011719 230.550781 C 156.464844 228.824219 156.652344 226.109375 158.382812 224.628906 C 160.109375 223.148438 162.828125 223.269531 164.3125 225 C 168.203125 229.441406 174.753906 234.007812 181.980469 236.785156 C 181.980469 236.785156 182.042969 236.785156 182.042969 236.785156 C 182.042969 236.785156 182.105469 236.785156 182.105469 236.785156 C 186.367188 238.386719 190.878906 239.3125 195.203125 239.25 C 201.628906 239.128906 206.695312 236.785156 210.398438 232.21875 C 211.882812 230.429688 214.539062 230.121094 216.332031 231.601562 C 218.121094 233.082031 218.433594 235.734375 216.949219 237.523438 C 212.871094 242.523438 207.496094 245.792969 201.132812 247.027344 C 205.210938 256.835938 215.527344 259.921875 221.828125 260.847656 C 239.4375 263.5 259.019531 255.726562 265.445312 243.507812 C 270.574219 233.761719 267.113281 221.976562 255.375 209.386719 C 242.464844 195.503906 180.992188 158.113281 148.125 157.25 C 145.777344 157.1875 143.925781 155.273438 143.984375 152.929688 C 144.046875 150.585938 145.964844 148.734375 148.3125 148.792969 C 159.183594 149.101562 172.097656 152.804688 184.082031 157.496094 C 187.542969 147.128906 185.8125 134.789062 175.496094 129.542969 C 173.394531 128.496094 172.589844 125.964844 173.640625 123.867188 C 174.691406 121.769531 177.222656 120.964844 179.324219 122.015625 C 194.152344 129.542969 196.746094 146.695312 191.929688 160.703125 C 200.019531 164.160156 207.3125 167.859375 212.808594 170.761719 C 224.484375 176.929688 235.855469 183.84375 244.996094 190.199219 C 244.8125 183.71875 242.15625 176.992188 239.375 170.019531 C 235.113281 159.285156 230.417969 147.3125 234.496094 134.726562 C 226.464844 134.109375 218.554688 133.0625 212.066406 129.542969 C 202.429688 124.359375 197.980469 114.980469 198.414062 100.914062 C 198.476562 98.570312 200.390625 96.777344 202.800781 96.839844 C 205.148438 96.902344 206.941406 98.878906 206.878906 101.222656 C 206.136719 123.433594 219.171875 125.347656 240.550781 126.707031 C 255.128906 127.628906 271.625 128.617188 276.320312 143.796875 C 277 146.019531 275.765625 148.363281 273.539062 149.101562 C 273.105469 149.226562 272.675781 149.289062 272.304688 149.289062 C 270.511719 149.289062 268.84375 148.117188 268.289062 146.328125 C 265.695312 137.996094 257.105469 136.332031 243.328125 135.40625 C 238.882812 145.894531 242.957031 156.136719 247.28125 166.996094 C 250.988281 176.375 254.820312 186.0625 253.089844 196.183594 C 256.671875 198.960938 259.578125 201.550781 261.617188 203.710938 C 271.75 214.570312 275.453125 224.074219 276.074219 231.785156 C 288.367188 232.464844 299.300781 228.886719 307.023438 221.542969 C 313.757812 215.1875 317.589844 206.425781 318.269531 195.996094 C 315.179688 197.355469 311.78125 198.21875 308.199219 198.527344 C 308.074219 198.527344 307.953125 198.527344 307.828125 198.527344 C 305.664062 198.527344 303.8125 196.863281 303.625 194.640625 C 303.441406 192.296875 305.171875 190.257812 307.519531 190.074219 C 323.953125 188.777344 334.703125 169.960938 334.085938 153.917969 C 333.898438 148.980469 332.167969 138.242188 321.296875 136.207031 C 320.800781 139.601562 319.691406 142.996094 318.082031 146.140625 C 314.007812 153.976562 306.964844 159.46875 298.5 161.628906 C 295.71875 173.476562 287.933594 183.78125 274.097656 185.941406 C 273.847656 186 273.664062 186 273.417969 186 C 271.378906 186 269.585938 184.519531 269.277344 182.421875 C 268.90625 180.140625 270.511719 177.980469 272.796875 177.609375 C 286.265625 175.511719 291.765625 161.9375 291.210938 149.410156 C 291.085938 147.066406 292.9375 145.09375 295.226562 145.03125 C 297.574219 144.90625 299.550781 146.757812 299.609375 149.042969 C 299.671875 150.152344 299.671875 151.261719 299.609375 152.3125 C 304.246094 150.335938 308.136719 146.820312 310.484375 142.191406 C 312.214844 138.859375 313.078125 135.28125 313.140625 131.640625 C 313.140625 131.640625 313.140625 131.578125 313.140625 131.578125 C 313.140625 131.519531 313.140625 131.519531 313.140625 131.457031 C 313.140625 127.691406 312.277344 123.867188 310.484375 120.289062 C 301.09375 101.160156 271.933594 99.554688 255.4375 101.53125 C 254.757812 104.429688 253.523438 107.453125 251.667969 110.539062 C 250.433594 112.511719 247.839844 113.128906 245.863281 111.894531 C 243.886719 110.664062 243.265625 108.070312 244.503906 106.097656 C 246.417969 103.011719 247.40625 100.234375 247.59375 97.644531 C 247.59375 97.582031 247.59375 97.582031 247.59375 97.519531 C 247.839844 93.507812 245.984375 90.054688 241.96875 86.96875 C 232.765625 79.933594 213.425781 76.046875 192.730469 77.097656 C 171.355469 78.207031 152.945312 84.253906 144.726562 92.890625 C 136.941406 101.097656 138.425781 111.710938 149.300781 124.296875 C 150.84375 126.089844 150.597656 128.742188 148.867188 130.222656 C 148.0625 130.902344 147.074219 131.210938 146.148438 131.210938 C 144.976562 131.210938 143.800781 130.714844 142.9375 129.730469 C 125.636719 109.550781 131.382812 95.605469 137.4375 88.449219 C 130.148438 88.265625 123.96875 90.609375 119.582031 93.078125 C 110.4375 98.136719 103.085938 106.652344 99.257812 116.402344 C 106.671875 118.3125 113.898438 122.878906 119.582031 131.085938 C 124.957031 138.800781 127.304688 148.734375 129.589844 158.359375 C 132.246094 169.464844 134.78125 180.015625 141.390625 183.902344 C 144.542969 185.753906 148.742188 186.25 154.179688 185.199219 C 154.179688 184.707031 154.179688 184.210938 154.179688 183.65625 C 154.242188 181.3125 156.15625 179.460938 158.503906 179.523438 C 160.851562 179.585938 162.707031 181.496094 162.644531 183.84375 C 162.644531 185.078125 162.765625 186.1875 162.953125 187.296875 C 162.953125 187.296875 162.953125 187.359375 162.953125 187.359375 C 164.25 193.160156 168.882812 197.046875 172.960938 199.390625 C 181.300781 204.265625 192.175781 205.375 196.003906 203.09375 C 197.980469 201.921875 200.578125 202.539062 201.8125 204.574219 C 202.988281 206.550781 202.367188 209.140625 200.328125 210.375 C 197.671875 211.980469 194.027344 212.71875 190.011719 212.71875 C 183.277344 212.71875 175.371094 210.621094 168.699219 206.734375 C 162.644531 203.21875 158.382812 198.652344 156.09375 193.46875 C 153.5625 193.960938 151.214844 194.207031 148.992188 194.207031 C 144.480469 194.207031 140.527344 193.222656 137.128906 191.183594 C 127.429688 185.445312 124.402344 172.675781 121.4375 160.332031 C 119.335938 151.511719 117.171875 142.316406 112.664062 135.898438 C 107.414062 128.308594 100.554688 124.730469 93.757812 123.929688 C 93.757812 123.929688 93.757812 123.929688 93.695312 123.929688 C 93.449219 123.929688 93.140625 123.867188 92.894531 123.867188 C 87.519531 123.433594 82.144531 124.667969 77.632812 127.136719 C 68.242188 132.195312 59.59375 143.921875 66.203125 160.457031 C 67.070312 162.617188 66.019531 165.085938 63.855469 165.949219 C 61.878906 166.75 59.71875 165.949219 58.667969 164.222656 C 48.351562 173.042969 40.8125 187.976562 42.355469 197.664062 Z M 42.355469 197.664062 " fill-opacity="1" fill-rule="nonzero"/></g></svg>