<?xml version="1.0" standalone="no"?>
<!DOCTYPE svg PUBLIC "-//W3C//DTD SVG 20010904//EN"
 "http://www.w3.org/TR/2001/REC-SVG-20010904/DTD/svg10.dtd">
<svg version="1.0" xmlns="http://www.w3.org/2000/svg"
 width="1024.000000pt" height="1006.000000pt" viewBox="0 0 1024.000000 1006.000000"
 preserveAspectRatio="xMidYMid meet">

<g transform="translate(0.000000,1006.000000) scale(0.100000,-0.100000)"
fill="#ffffff" stroke="none">
<path d="M4960 9619 c-133 -10 -449 -47 -460 -54 -4 -2 -63 -16 -131 -30 -142
-29 -205 -44 -234 -56 -11 -5 -63 -20 -115 -34 -99 -26 -314 -104 -412 -149
-31 -14 -62 -26 -69 -26 -6 0 -48 -19 -93 -42 -44 -22 -88 -45 -96 -49 -156
-78 -210 -107 -233 -126 -16 -13 -33 -23 -37 -23 -5 0 -29 -13 -52 -29 -24
-16 -81 -55 -128 -85 -316 -208 -689 -546 -934 -846 -25 -30 -58 -71 -74 -90
-16 -19 -42 -55 -58 -80 -16 -25 -37 -54 -47 -65 -18 -19 -72 -92 -92 -124 -5
-8 -30 -47 -54 -86 -24 -38 -64 -100 -88 -137 -23 -37 -43 -71 -43 -76 0 -5
-14 -28 -30 -50 -16 -23 -30 -44 -30 -47 0 -4 -28 -64 -145 -310 -19 -38 -37
-83 -41 -100 -4 -16 -15 -43 -25 -60 -9 -16 -23 -50 -29 -75 -7 -25 -15 -49
-20 -55 -4 -5 -11 -26 -15 -45 -4 -19 -12 -41 -18 -49 -6 -7 -12 -18 -14 -25
-1 -6 -19 -69 -39 -141 -44 -162 -62 -231 -69 -270 -3 -16 -10 -55 -15 -85 -6
-30 -13 -66 -15 -80 -54 -248 -83 -845 -54 -1105 5 -44 11 -100 13 -125 12
-119 47 -357 55 -375 5 -11 13 -47 19 -80 8 -51 30 -143 41 -180 5 -15 7 -22
31 -115 19 -74 33 -113 71 -205 4 -11 13 -40 20 -65 6 -24 22 -66 35 -92 13
-26 24 -52 24 -58 0 -10 12 -39 75 -175 41 -88 56 -119 80 -160 13 -22 24 -46
24 -53 1 -8 16 -37 35 -65 18 -29 52 -86 75 -127 51 -92 50 -91 136 -218 104
-154 108 -159 198 -268 20 -25 37 -48 37 -52 0 -4 15 -23 33 -42 18 -19 58
-64 89 -100 132 -151 361 -373 518 -501 19 -16 54 -45 76 -64 23 -19 44 -35
48 -35 3 0 34 -22 68 -50 34 -28 67 -50 72 -50 6 0 28 -16 49 -35 21 -19 48
-37 60 -41 12 -4 24 -10 27 -13 8 -11 100 -71 109 -71 5 0 21 -10 37 -23 15
-12 51 -34 79 -48 27 -14 103 -53 168 -87 65 -33 141 -68 170 -78 29 -9 61
-24 72 -34 24 -20 158 -70 305 -112 110 -31 121 -35 183 -63 21 -9 79 -24 130
-35 121 -24 238 -49 311 -66 32 -7 63 -11 67 -8 5 2 46 -2 91 -10 117 -22 185
-26 513 -33 279 -5 374 -1 597 28 42 5 87 12 100 15 13 3 66 11 118 19 52 8
131 24 175 35 44 12 115 29 157 39 42 10 110 30 150 44 40 14 105 35 143 47
39 12 75 26 80 30 6 4 24 10 40 14 17 4 57 20 90 35 33 16 92 41 130 57 39 15
81 35 95 44 14 9 81 44 150 79 69 34 166 89 215 122 50 32 102 64 117 72 38
18 248 172 330 242 38 33 79 65 90 71 11 7 50 40 87 75 37 35 89 85 116 111
53 49 236 238 271 279 191 222 243 290 368 480 115 174 144 221 152 245 4 10
13 26 19 34 12 14 53 89 103 185 99 192 275 642 296 757 3 12 5 23 6 23 1 0 3
7 5 15 2 8 13 56 25 105 12 50 26 98 31 107 5 10 9 34 9 54 0 19 4 43 9 52 5
9 16 73 25 142 9 69 21 139 26 155 26 82 33 777 11 980 -7 61 -15 135 -18 165
-3 30 -9 60 -12 65 -4 6 -8 24 -9 40 -2 24 -28 161 -58 295 -10 46 -57 226
-66 250 -3 8 -11 33 -17 55 -7 22 -20 60 -31 85 -10 25 -27 72 -38 105 -17 52
-53 143 -82 210 -68 154 -176 373 -195 395 -7 8 -20 33 -29 54 -9 22 -29 56
-44 75 -15 20 -38 56 -51 81 -13 25 -37 61 -52 81 -16 20 -29 42 -29 47 0 6
-11 24 -25 40 -14 17 -40 51 -58 76 -98 138 -116 163 -136 180 -11 11 -21 24
-21 29 0 6 -14 25 -31 41 -17 17 -70 76 -118 131 -144 163 -435 445 -459 445
-6 0 -22 14 -35 30 -14 17 -29 30 -32 30 -4 0 -31 21 -61 46 -30 26 -67 54
-83 63 -26 14 -78 51 -136 96 -65 50 -294 186 -445 266 -29 15 -186 87 -260
119 -41 18 -83 36 -92 41 -9 4 -45 18 -80 29 -35 12 -78 28 -97 37 -18 8 -74
26 -125 39 -50 14 -100 29 -111 34 -39 19 -353 91 -460 106 -263 37 -420 50
-650 51 -115 1 -262 -3 -325 -8z m650 -510 c41 -6 109 -15 150 -20 139 -16
567 -114 604 -137 6 -3 19 -8 30 -9 29 -5 395 -155 457 -189 20 -10 71 -36
113 -57 42 -21 76 -43 76 -48 0 -5 8 -9 18 -9 29 0 355 -217 455 -302 20 -18
44 -35 51 -38 13 -4 156 -128 211 -181 11 -10 25 -23 30 -29 46 -43 225 -224
257 -260 22 -25 51 -56 64 -70 13 -14 24 -30 24 -36 0 -6 14 -23 31 -40 32
-30 38 -38 124 -165 28 -41 56 -80 63 -87 7 -8 20 -28 28 -44 9 -17 31 -51 49
-77 18 -25 36 -56 39 -69 4 -12 17 -34 30 -50 12 -15 33 -52 45 -82 13 -30 31
-64 41 -75 10 -11 30 -51 45 -90 16 -38 31 -72 34 -75 4 -3 21 -41 38 -85 18
-44 41 -98 52 -120 11 -23 27 -72 37 -110 10 -39 24 -77 31 -86 7 -8 13 -23
13 -33 0 -10 11 -51 25 -92 14 -41 25 -82 25 -91 0 -16 14 -67 31 -108 12 -32
40 -190 54 -315 4 -30 9 -62 12 -70 13 -36 32 -356 32 -535 0 -220 -32 -601
-57 -665 -3 -8 -6 -23 -7 -34 -3 -27 -26 -127 -36 -156 -4 -14 -11 -43 -15
-65 -4 -22 -9 -44 -13 -50 -3 -5 -7 -18 -8 -28 -2 -10 -19 -64 -38 -120 -40
-116 -39 -113 -58 -187 -7 -30 -25 -75 -38 -100 -14 -25 -31 -61 -38 -80 -15
-39 -74 -168 -98 -215 -8 -16 -29 -57 -46 -90 -17 -33 -36 -67 -42 -75 -7 -8
-29 -46 -49 -85 -21 -38 -45 -79 -54 -90 -10 -11 -26 -36 -36 -55 -11 -19 -36
-57 -57 -85 -21 -27 -50 -66 -64 -85 -24 -33 -107 -140 -142 -185 -16 -20 -78
-88 -195 -212 -33 -35 -63 -63 -69 -63 -5 0 -19 -16 -30 -35 -12 -20 -32 -41
-45 -48 -12 -7 -63 -49 -112 -94 -91 -85 -122 -110 -204 -164 -27 -18 -48 -35
-48 -40 0 -4 -26 -22 -57 -40 -32 -18 -71 -43 -88 -57 -43 -34 -168 -112 -181
-112 -6 0 -22 -8 -35 -18 -32 -25 -117 -72 -130 -72 -6 0 -26 -12 -44 -26 -19
-14 -62 -36 -97 -48 -35 -13 -93 -37 -130 -54 -36 -18 -70 -32 -75 -32 -7 0
-105 -37 -188 -71 -11 -4 -49 -16 -85 -25 -36 -9 -69 -21 -75 -25 -5 -5 -21
-9 -36 -9 -14 0 -60 -11 -100 -24 -74 -24 -153 -41 -239 -51 -25 -3 -61 -8
-80 -11 -19 -4 -53 -8 -75 -10 -22 -2 -76 -9 -120 -15 -83 -12 -506 -15 -610
-5 -209 21 -363 38 -385 42 -14 3 -32 7 -40 8 -9 1 -21 5 -28 10 -6 4 -16 5
-21 1 -5 -3 -12 -1 -16 5 -3 5 -22 10 -41 10 -19 0 -49 6 -67 13 -30 13 -83
26 -132 32 -11 2 -38 10 -60 18 -22 8 -87 30 -145 48 -58 18 -114 38 -125 46
-11 7 -29 13 -40 13 -12 0 -26 5 -32 11 -6 6 -17 11 -24 13 -8 1 -53 21 -101
44 -48 23 -94 42 -102 42 -8 0 -18 4 -21 10 -3 5 -38 26 -78 46 -40 19 -81 44
-92 54 -11 9 -37 23 -57 29 -20 7 -38 15 -40 19 -4 11 -103 72 -115 72 -5 0
-18 9 -27 19 -9 10 -44 36 -77 56 -33 20 -70 46 -82 56 -52 46 -104 86 -129
98 -16 8 -28 18 -28 22 0 5 -24 26 -52 48 -66 48 -347 324 -419 410 -30 35
-62 74 -72 85 -58 67 -97 119 -97 129 0 6 -12 23 -26 37 -29 28 -134 174 -134
186 0 4 -10 21 -23 38 -35 47 -90 141 -138 236 -23 47 -48 91 -56 98 -7 7 -13
18 -13 23 0 11 -33 89 -54 129 -26 48 -130 313 -140 355 -1 6 -10 28 -20 50
-9 22 -22 60 -28 85 -6 25 -22 88 -35 140 -40 151 -89 420 -98 530 -2 25 -9
104 -15 175 -14 146 -7 552 10 650 6 33 13 80 15 105 9 84 36 245 45 265 5 11
9 27 9 35 0 8 5 33 11 55 5 22 12 54 15 71 2 17 9 43 14 56 5 14 17 56 26 94
20 83 76 246 115 329 15 33 37 87 50 120 31 80 99 224 120 255 9 14 23 41 30
60 7 19 26 53 42 74 15 22 28 45 28 50 0 6 20 40 43 76 24 36 57 85 73 109
103 157 258 359 346 451 24 25 62 65 84 90 23 25 50 52 60 61 11 9 31 29 46
45 14 16 45 45 67 64 23 19 58 52 78 73 20 20 40 37 45 37 5 0 25 18 45 40 21
22 45 40 54 40 9 0 24 9 33 19 43 47 360 261 487 328 193 102 277 143 295 143
5 0 21 8 34 17 14 10 30 18 35 19 6 1 31 11 56 22 24 11 58 24 74 28 17 4 43
13 58 21 37 19 331 105 400 117 16 3 43 10 60 15 18 6 50 12 72 15 22 3 50 7
63 10 75 19 99 23 212 37 206 25 650 29 800 8z"/>
<path d="M5000 8969 c-235 -16 -424 -42 -458 -62 -5 -4 -22 -8 -38 -11 -16 -3
-51 -10 -79 -16 -27 -6 -63 -13 -78 -16 -15 -3 -54 -14 -85 -25 -31 -11 -97
-31 -147 -45 -49 -13 -99 -29 -110 -34 -36 -17 -80 -33 -87 -32 -5 1 -8 -2 -8
-6 0 -5 -32 -22 -71 -37 -38 -16 -72 -32 -75 -37 -3 -4 -12 -8 -21 -8 -20 0
-150 -66 -248 -125 -38 -23 -81 -46 -95 -50 -14 -4 -33 -15 -43 -23 -10 -9
-33 -25 -52 -37 -100 -61 -218 -144 -258 -180 -12 -11 -42 -35 -67 -54 -178
-136 -467 -431 -613 -626 -41 -55 -84 -108 -95 -119 -12 -10 -24 -31 -27 -47
-4 -16 -11 -31 -16 -35 -14 -8 -89 -126 -89 -140 0 -6 -8 -18 -17 -25 -9 -8
-29 -41 -44 -75 -15 -33 -34 -66 -43 -73 -8 -7 -20 -29 -27 -49 -6 -20 -26
-62 -44 -92 -18 -30 -38 -73 -45 -95 -6 -22 -23 -65 -38 -95 -30 -65 -35 -77
-63 -155 -11 -33 -27 -73 -34 -90 -7 -16 -18 -55 -25 -85 -7 -30 -17 -61 -23
-67 -5 -7 -7 -13 -4 -13 3 0 1 -15 -4 -32 -14 -46 -45 -172 -58 -238 -19 -97
-44 -234 -46 -260 -2 -14 -6 -50 -10 -80 -16 -120 -20 -327 -12 -570 9 -313
10 -321 42 -477 8 -40 15 -82 15 -95 0 -13 6 -34 13 -48 8 -15 17 -53 20 -85
3 -33 16 -87 27 -120 12 -33 23 -69 25 -80 9 -53 39 -145 62 -190 13 -27 24
-51 24 -52 -1 -2 0 -5 0 -8 1 -3 2 -8 3 -12 7 -28 20 -65 41 -108 13 -27 31
-70 41 -95 19 -49 50 -116 64 -140 5 -8 16 -31 25 -50 13 -31 37 -74 124 -230
10 -19 34 -55 53 -80 18 -24 44 -63 58 -86 43 -71 98 -148 128 -179 16 -16 34
-40 41 -53 13 -25 58 -77 114 -131 20 -20 37 -42 37 -49 0 -6 18 -24 40 -38
22 -15 40 -31 40 -36 0 -10 95 -104 127 -125 12 -8 25 -23 28 -34 4 -10 12
-19 18 -19 7 0 38 -24 69 -52 30 -29 63 -59 73 -67 115 -92 172 -135 203 -152
20 -12 46 -30 58 -40 11 -10 24 -19 29 -19 5 0 18 -9 29 -19 26 -24 144 -91
160 -91 7 0 21 -9 31 -20 23 -26 143 -91 210 -115 28 -10 55 -22 60 -26 24
-17 102 -57 125 -64 14 -4 48 -18 75 -31 52 -24 194 -71 320 -106 39 -11 102
-29 140 -39 139 -39 317 -66 590 -90 135 -13 604 -7 626 7 8 5 30 9 49 10 85
2 256 29 378 60 161 40 274 73 287 84 6 4 37 14 70 21 33 7 69 18 80 26 11 7
26 13 34 13 8 0 37 11 65 24 28 13 69 31 91 40 22 9 47 21 55 27 8 5 26 14 40
20 62 26 267 134 285 149 11 10 32 20 48 24 15 4 36 14 46 24 21 20 43 35 92
61 19 11 41 27 49 36 7 9 26 23 41 31 38 19 229 170 318 252 40 37 82 72 91
77 10 6 44 39 77 75 33 36 86 92 117 125 32 33 71 78 87 101 16 23 32 44 37
46 4 1 37 43 72 92 36 49 77 104 93 121 15 18 27 37 27 43 0 6 16 29 35 52 19
23 46 65 61 93 14 29 32 59 39 67 7 8 25 41 40 72 15 31 33 62 41 69 8 6 14
17 14 24 0 7 17 48 39 91 154 314 290 741 317 998 3 28 7 53 10 58 3 4 7 29
10 55 3 27 10 73 15 103 5 30 12 111 14 180 3 69 8 141 10 160 13 101 -36 710
-59 749 -3 4 -10 41 -16 82 -10 63 -39 191 -81 354 -6 22 -19 59 -30 82 -10
24 -33 87 -50 140 -17 54 -41 116 -52 138 -12 22 -29 61 -38 87 -10 26 -26 60
-37 75 -10 16 -27 51 -37 78 -11 28 -29 64 -41 80 -12 17 -36 58 -53 92 -17
34 -35 64 -40 68 -6 3 -20 27 -31 53 -12 26 -34 64 -50 84 -17 20 -30 41 -30
45 0 5 -16 26 -35 46 -19 20 -35 43 -35 50 0 7 -14 26 -31 43 -17 16 -39 45
-49 64 -10 19 -34 50 -54 68 -20 18 -36 36 -36 40 0 7 -25 36 -101 119 -32 34
-38 39 -114 114 -134 131 -184 174 -325 286 -52 42 -97 78 -100 82 -3 3 -22
15 -42 26 -20 11 -80 50 -133 88 -54 37 -101 67 -105 67 -4 0 -37 18 -73 39
-35 22 -80 47 -98 56 -19 8 -45 22 -59 30 -44 25 -238 115 -249 115 -7 0 -39
14 -71 30 -33 17 -99 40 -147 51 -47 11 -109 29 -137 39 -70 25 -161 50 -203
56 -19 2 -43 9 -54 15 -11 5 -32 12 -47 15 -80 14 -244 35 -292 38 -30 3 -116
9 -190 15 -153 12 -292 12 -460 0z m715 -178 c159 -19 242 -34 280 -51 11 -5
34 -11 50 -15 17 -3 39 -7 50 -9 11 -2 31 -9 45 -14 14 -5 27 -9 30 -9 14 1
307 -97 320 -108 8 -7 33 -18 55 -25 22 -7 74 -30 117 -50 42 -21 90 -41 107
-45 17 -4 31 -10 31 -14 0 -4 36 -27 81 -52 138 -76 156 -87 228 -133 39 -25
75 -46 81 -46 6 0 13 -7 17 -15 3 -9 17 -22 32 -30 36 -19 201 -150 269 -213
19 -18 48 -40 64 -48 15 -8 28 -21 28 -29 0 -7 14 -23 30 -35 17 -12 54 -47
83 -78 28 -31 70 -75 92 -98 75 -79 165 -190 230 -283 28 -40 62 -87 76 -104
24 -29 85 -131 118 -195 7 -15 24 -43 36 -62 33 -49 145 -272 145 -288 0 -7
11 -30 25 -52 14 -22 37 -77 52 -123 14 -45 32 -91 38 -102 7 -11 20 -47 30
-80 10 -33 26 -86 36 -117 11 -32 19 -66 19 -77 0 -11 4 -22 8 -25 5 -3 9 -18
10 -34 0 -16 7 -53 16 -83 8 -30 17 -76 21 -104 3 -27 10 -68 15 -90 17 -65
17 -67 25 -135 13 -110 15 -148 21 -395 4 -187 2 -275 -11 -400 -9 -88 -19
-182 -22 -210 -2 -27 -7 -57 -10 -65 -9 -21 -14 -47 -29 -125 -17 -97 -47
-231 -54 -244 -5 -9 -20 -56 -35 -106 -14 -49 -30 -99 -35 -110 -25 -57 -39
-94 -50 -130 -7 -22 -23 -60 -35 -85 -12 -25 -31 -65 -41 -90 -10 -25 -51
-107 -91 -183 -94 -176 -95 -178 -115 -202 -9 -11 -26 -40 -39 -65 -12 -25
-39 -65 -58 -90 -20 -25 -40 -52 -46 -61 -20 -32 -75 -105 -98 -129 -13 -14
-43 -52 -67 -85 -52 -70 -373 -390 -412 -411 -16 -8 -28 -18 -28 -22 0 -4 -22
-22 -50 -40 -27 -18 -50 -36 -50 -40 0 -4 -15 -16 -32 -27 -29 -17 -118 -79
-188 -133 -14 -10 -50 -32 -80 -48 -30 -16 -73 -41 -95 -55 -72 -45 -79 -49
-135 -75 -30 -14 -68 -32 -85 -40 -16 -8 -37 -18 -45 -23 -8 -5 -35 -18 -60
-29 -25 -11 -74 -34 -110 -50 -36 -17 -83 -34 -105 -38 -21 -4 -60 -16 -85
-26 -25 -11 -54 -23 -65 -28 -35 -15 -158 -49 -200 -56 -5 -1 -12 -3 -15 -4
-7 -2 -18 -5 -130 -28 -120 -26 -220 -42 -290 -47 -30 -2 -86 -8 -125 -12
-102 -12 -582 -8 -597 4 -7 6 -52 13 -99 17 -48 3 -131 15 -185 26 -55 11
-112 23 -129 26 -16 3 -37 8 -45 11 -8 3 -26 7 -39 9 -28 4 -178 49 -246 74
-27 10 -75 26 -105 35 -30 10 -75 28 -99 41 -24 13 -49 24 -55 24 -19 0 -360
175 -398 203 -18 14 -51 34 -73 44 -22 10 -51 26 -65 36 -14 10 -63 44 -110
77 -105 72 -171 124 -221 173 -21 20 -43 37 -48 37 -8 0 -54 42 -223 206 -29
28 -73 75 -98 104 -25 28 -60 65 -78 82 -17 17 -32 38 -32 47 0 9 -16 29 -35
44 -19 15 -35 32 -35 38 0 5 -19 34 -43 63 -43 55 -91 127 -116 173 -7 14 -31
49 -52 77 -21 28 -39 58 -39 67 0 9 -8 27 -19 40 -23 30 -87 154 -166 324 -57
122 -139 352 -160 448 -2 9 -6 21 -10 27 -7 11 -44 153 -50 195 -3 17 -8 44
-12 60 -4 17 -7 32 -8 35 -1 3 -4 28 -9 55 -4 28 -11 64 -16 80 -19 60 -31
287 -30 550 0 149 2 290 5 315 5 55 16 144 20 174 2 11 6 44 10 71 3 28 10 66
15 85 5 19 16 71 25 115 9 44 21 94 26 112 6 18 12 40 14 50 19 84 68 250 84
285 11 24 43 99 71 168 48 117 72 170 104 230 7 14 22 43 34 65 112 222 315
523 434 645 20 21 39 47 42 57 4 11 18 26 32 34 14 7 32 25 39 40 8 14 30 38
49 52 19 15 38 36 41 47 3 11 13 20 20 20 8 0 29 18 46 40 18 22 37 40 42 40
6 0 27 17 47 38 62 62 101 95 147 124 24 15 43 31 43 36 0 4 26 23 58 42 31
19 63 43 70 52 7 10 19 18 27 18 8 0 29 12 47 28 41 34 64 48 108 68 19 9 48
26 65 38 37 27 96 59 165 92 30 14 87 40 125 59 39 18 93 43 120 55 28 13 66
31 86 41 20 11 44 19 52 19 9 0 58 14 109 31 51 17 100 32 108 34 8 2 16 4 18
5 1 2 5 3 10 4 4 1 27 7 52 13 218 58 404 90 635 107 124 9 558 -5 710 -23z"/>
<path d="M5235 8611 c-3 -5 -1 -12 5 -16 5 -3 10 1 10 9 0 18 -6 21 -15 7z"/>
<path d="M5643 8575 c-10 -31 -9 -34 14 -40 16 -4 35 0 51 11 32 21 131 14
144 -10 11 -19 55 -17 63 3 8 20 0 25 -43 26 -53 3 -135 16 -147 25 -5 4 -24
10 -41 13 -28 5 -32 3 -41 -28z"/>
<path d="M5285 8550 c-3 -5 -1 -10 4 -10 6 0 11 5 11 10 0 6 -2 10 -4 10 -3 0
-8 -4 -11 -10z"/>
<path d="M5220 8540 c8 -5 20 -10 25 -10 6 0 3 5 -5 10 -8 5 -19 10 -25 10 -5
0 -3 -5 5 -10z"/>
<path d="M5755 8520 c10 -11 23 -20 28 -20 6 0 2 9 -8 20 -10 11 -23 20 -28
20 -6 0 -2 -9 8 -20z"/>
<path d="M5966 8525 c-92 -33 -98 -84 -12 -97 26 -3 54 -12 62 -18 9 -8 14 -9
14 -2 0 6 -4 14 -10 17 -5 3 -10 19 -10 35 0 16 5 32 10 35 14 9 12 45 -2 45
-7 -1 -31 -7 -52 -15z"/>
<path d="M5710 8499 c0 -5 5 -7 10 -4 6 3 10 8 10 11 0 2 -4 4 -10 4 -5 0 -10
-5 -10 -11z"/>
<path d="M5460 8231 c31 -18 63 -24 58 -10 -2 7 -20 14 -39 16 -23 2 -29 1
-19 -6z"/>
<path d="M5550 8230 c0 -6 7 -10 15 -10 8 0 15 2 15 4 0 2 -7 6 -15 10 -8 3
-15 1 -15 -4z"/>
<path d="M6128 8223 c7 -3 16 -2 19 1 4 3 -2 6 -13 5 -11 0 -14 -3 -6 -6z"/>
<path d="M5827 8189 c-10 -11 -16 -23 -14 -25 6 -6 37 25 37 37 0 13 -3 11
-23 -12z"/>
<path d="M5397 8176 c-4 -10 -5 -21 -2 -24 9 -9 17 6 13 25 -3 17 -4 17 -11
-1z"/>
<path d="M5740 8170 c-12 -8 -11 -10 8 -10 12 0 22 5 22 10 0 13 -11 13 -30 0z"/>
<path d="M5620 8161 c0 -10 22 -31 33 -31 16 0 2 33 -15 36 -10 1 -18 -1 -18
-5z"/>
<path d="M5128 8133 c7 -3 16 -2 19 1 4 3 -2 6 -13 5 -11 0 -14 -3 -6 -6z"/>
<path d="M5160 8105 c-10 -20 -11 -28 -2 -37 7 -7 12 -10 13 -7 3 23 6 69 5
69 -2 0 -9 -11 -16 -25z"/>
<path d="M4572 8071 c-36 -31 -42 -60 -12 -68 15 -4 18 -9 10 -18 -8 -9 -4
-14 17 -18 38 -7 41 -1 14 26 -24 26 -20 54 10 65 14 6 15 10 6 23 -11 15 -16
14 -45 -10z"/>
<path d="M6040 8060 c0 -5 5 -10 10 -10 6 0 10 5 10 10 0 6 -4 10 -10 10 -5 0
-10 -4 -10 -10z"/>
<path d="M6418 8065 c-7 -7 3 -65 12 -65 4 0 12 12 19 27 10 21 9 28 -1 34
-15 10 -23 11 -30 4z"/>
<path d="M5050 8050 c0 -5 9 -10 20 -10 11 0 20 5 20 10 0 6 -9 10 -20 10 -11
0 -20 -4 -20 -10z"/>
<path d="M6150 8041 c0 -13 26 -32 33 -24 8 7 -11 33 -24 33 -5 0 -9 -4 -9 -9z"/>
<path d="M6460 8025 c0 -17 22 -29 41 -23 6 2 0 12 -15 21 -23 15 -26 16 -26
2z"/>
<path d="M5156 8014 c-4 -9 -4 -19 -1 -22 2 -3 7 3 11 12 4 9 4 19 1 22 -2 3
-7 -3 -11 -12z"/>
<path d="M6185 7999 c-11 -17 1 -21 15 -4 8 9 8 15 2 15 -6 0 -14 -5 -17 -11z"/>
<path d="M4320 7984 c0 -8 6 -11 15 -8 8 4 15 9 15 13 0 4 -7 8 -15 8 -8 0
-15 -6 -15 -13z"/>
<path d="M4785 7980 c-3 -5 1 -10 9 -10 9 0 16 5 16 10 0 6 -4 10 -9 10 -6 0
-13 -4 -16 -10z"/>
<path d="M6160 7960 c0 -5 5 -10 10 -10 6 0 10 5 10 10 0 6 -4 10 -10 10 -5 0
-10 -4 -10 -10z"/>
<path d="M4225 7936 c11 -8 23 -12 28 -9 13 8 -3 23 -26 23 -20 0 -20 0 -2
-14z"/>
<path d="M4378 7936 c-23 -17 -23 -23 3 -37 12 -6 19 -7 15 -1 -3 5 1 15 9 22
8 7 12 16 9 21 -7 12 -16 11 -36 -5z"/>
<path d="M4030 7929 c0 -5 5 -7 10 -4 6 3 10 8 10 11 0 2 -4 4 -10 4 -5 0 -10
-5 -10 -11z"/>
<path d="M6147 7924 c-13 -13 -7 -24 14 -24 11 0 19 5 17 12 -5 14 -22 21 -31
12z"/>
<path d="M5590 7899 c0 -5 5 -7 10 -4 6 3 10 8 10 11 0 2 -4 4 -10 4 -5 0 -10
-5 -10 -11z"/>
<path d="M5726 7884 c-22 -22 -20 -27 7 -13 29 16 30 16 18 23 -5 3 -17 -1
-25 -10z"/>
<path d="M5790 7890 c0 -5 7 -10 16 -10 8 0 12 5 9 10 -3 6 -10 10 -16 10 -5
0 -9 -4 -9 -10z"/>
<path d="M5063 7875 c-3 -9 -3 -18 0 -22 10 -10 37 6 37 22 0 20 -29 20 -37 0z"/>
<path d="M5530 7864 c-13 -34 -13 -34 11 -34 14 0 19 5 16 15 -4 8 -2 17 4 20
11 7 3 25 -12 25 -5 0 -14 -12 -19 -26z"/>
<path d="M4326 7864 c-8 -22 -8 -24 8 -24 9 0 14 9 13 20 -2 24 -13 26 -21 4z"/>
<path d="M4490 7870 c0 -5 5 -10 10 -10 6 0 10 5 10 10 0 6 -4 10 -10 10 -5 0
-10 -4 -10 -10z"/>
<path d="M4530 7871 c0 -5 6 -11 14 -14 17 -7 10 -47 -11 -64 -8 -6 -12 -16
-9 -22 4 -5 -3 -15 -15 -22 -17 -9 -19 -13 -8 -20 29 -18 49 -10 49 20 0 20 6
30 20 34 14 3 18 10 14 21 -4 10 2 26 12 38 17 19 17 21 2 15 -12 -4 -18 -1
-18 8 0 9 -10 15 -25 15 -14 0 -25 -4 -25 -9z"/>
<path d="M6073 7853 c-7 -2 -13 -11 -13 -19 0 -8 -10 -14 -26 -14 -14 0 -23
-4 -19 -10 12 -19 50 -9 73 21 22 28 17 36 -15 22z"/>
<path d="M3634 7819 c-10 -17 13 -36 27 -22 12 12 4 33 -11 33 -5 0 -12 -5
-16 -11z"/>
<path d="M4105 7815 c-6 -9 -20 -17 -32 -18 -31 -2 -36 -32 -7 -46 13 -6 24
-15 24 -21 0 -5 5 -10 11 -10 5 0 7 5 4 10 -3 6 -4 10 0 10 3 0 10 -10 15 -22
8 -21 9 -21 9 -3 0 11 -8 31 -18 45 -17 21 -18 25 -4 35 9 7 14 17 12 23 -3 8
-7 7 -14 -3z"/>
<path d="M5075 7820 c3 -5 8 -10 11 -10 2 0 4 5 4 10 0 6 -5 10 -11 10 -5 0
-7 -4 -4 -10z"/>
<path d="M5860 7811 c0 -11 26 -22 34 -14 12 12 5 23 -14 23 -11 0 -20 -4 -20
-9z"/>
<path d="M4006 7794 c-8 -21 -8 -24 3 -24 5 0 11 9 14 20 6 24 -8 27 -17 4z"/>
<path d="M4256 7795 c4 -8 8 -15 10 -15 2 0 4 7 4 15 0 8 -4 15 -10 15 -5 0
-7 -7 -4 -15z"/>
<path d="M5522 7778 c-17 -17 -15 -48 2 -48 18 0 32 38 19 51 -5 5 -14 4 -21
-3z"/>
<path d="M5850 7780 c-9 -6 -10 -10 -3 -10 6 0 15 5 18 10 8 12 4 12 -15 0z"/>
<path d="M6360 7761 c0 -25 6 -27 13 -6 4 8 2 17 -3 20 -6 4 -10 -3 -10 -14z"/>
<path d="M6207 7764 c-4 -4 -7 -17 -7 -28 1 -19 1 -20 11 -3 11 19 8 43 -4 31z"/>
<path d="M6270 7761 c0 -5 9 -7 20 -4 11 3 20 7 20 9 0 2 -9 4 -20 4 -11 0
-20 -4 -20 -9z"/>
<path d="M3716 7739 c-11 -10 -16 -22 -13 -26 8 -7 47 25 47 39 0 13 -14 8
-34 -13z"/>
<path d="M5095 7752 c6 -4 10 -16 10 -26 0 -29 22 -30 27 -2 3 16 0 27 -9 30
-21 9 -40 7 -28 -2z"/>
<path d="M3803 7738 c3 -10 2 -18 -3 -18 -6 0 -20 -11 -32 -25 -24 -28 -43
-33 -34 -10 4 13 1 12 -22 -2 -15 -9 -29 -19 -32 -21 -3 -2 3 -8 13 -13 19
-11 23 -49 6 -66 -7 -7 -9 -19 -5 -28 5 -13 10 -14 26 -5 16 9 19 15 10 24 -8
10 -6 15 10 19 11 3 20 10 20 16 0 6 -7 8 -15 5 -22 -9 -19 1 10 32 13 14 22
31 19 36 -3 5 5 6 19 3 33 -9 47 27 21 53 -17 16 -18 16 -11 0z"/>
<path d="M5601 7734 c0 -11 3 -14 6 -6 3 7 2 16 -1 19 -3 4 -6 -2 -5 -13z"/>
<path d="M3585 7730 c-3 -5 3 -10 14 -10 12 0 21 5 21 10 0 6 -6 10 -14 10 -8
0 -18 -4 -21 -10z"/>
<path d="M5380 7730 c0 -5 12 -10 26 -10 14 0 23 4 19 10 -3 6 -15 10 -26 10
-10 0 -19 -4 -19 -10z"/>
<path d="M5913 7679 c-14 -59 -10 -73 13 -41 9 13 23 21 32 20 11 -2 17 4 18
18 1 12 4 26 8 33 4 6 2 11 -3 11 -6 0 -11 -4 -11 -10 0 -15 -21 -12 -34 5 -9
13 -13 6 -23 -36z"/>
<path d="M6058 7723 c7 -3 16 -2 19 1 4 3 -2 6 -13 5 -11 0 -14 -3 -6 -6z"/>
<path d="M4340 7705 c0 -9 5 -15 11 -13 6 2 11 8 11 13 0 5 -5 11 -11 13 -6 2
-11 -4 -11 -13z"/>
<path d="M5517 7707 c-3 -8 1 -21 9 -27 15 -13 17 -6 5 24 -6 17 -8 17 -14 3z"/>
<path d="M6098 7693 c-27 -4 -61 -33 -39 -33 6 0 11 5 11 11 0 6 9 9 20 6 10
-3 24 1 31 9 6 8 10 13 8 13 -2 -1 -16 -4 -31 -6z"/>
<path d="M4185 7681 c-3 -5 -1 -13 5 -16 6 -4 8 -15 5 -25 -4 -12 3 -25 21
-39 37 -29 54 -27 54 8 0 25 -4 30 -27 33 -16 2 -29 9 -29 16 -3 29 -4 32 -13
32 -6 0 -12 -4 -16 -9z"/>
<path d="M4606 7655 c-9 -10 -12 -23 -8 -34 10 -26 70 -91 84 -91 6 0 -3 13
-22 30 -27 24 -33 36 -33 70 0 45 0 46 -21 25z"/>
<path d="M6504 7645 c-1 -14 4 -25 11 -25 18 0 26 25 12 39 -17 17 -22 14 -23
-14z"/>
<path d="M4378 7618 c-3 -32 -4 -33 -53 -33 -38 0 -50 -4 -50 -15 0 -9 7 -14
18 -12 9 2 17 -2 17 -8 0 -6 4 -8 10 -5 6 3 7 -1 4 -9 -3 -9 -10 -16 -15 -16
-13 0 -11 -12 6 -54 10 -23 20 -34 27 -30 9 6 9 9 0 12 -14 4 8 47 35 69 9 7
16 27 17 45 1 22 7 33 16 33 16 0 40 35 33 48 -2 4 -17 7 -33 7 -25 0 -29 -4
-32 -32z"/>
<path d="M4567 7644 c-13 -13 -7 -44 8 -44 16 0 17 5 6 33 -3 10 -10 15 -14
11z"/>
<path d="M6026 7631 c-4 -7 -5 -15 -2 -18 9 -9 19 4 14 18 -4 11 -6 11 -12 0z"/>
<path d="M3625 7605 c11 -50 14 -55 30 -55 13 0 14 4 4 22 -10 18 -9 20 5 15
10 -4 16 -1 16 8 0 8 -8 15 -18 15 -10 0 -24 6 -31 13 -10 10 -11 6 -6 -18z"/>
<path d="M4123 7613 c-19 -7 -16 -20 7 -26 22 -6 26 -36 9 -69 -9 -16 -8 -19
3 -12 17 11 88 13 88 2 0 -4 11 -8 25 -8 31 0 31 7 3 30 -18 14 -26 16 -38 7
-13 -10 -13 -10 -3 3 18 24 0 44 -31 36 -19 -5 -26 -2 -26 8 0 18 -22 35 -37
29z"/>
<path d="M5400 7614 c0 -17 17 -36 24 -26 3 5 -1 15 -9 22 -8 7 -15 9 -15 4z"/>
<path d="M5111 7596 c-11 -13 -12 -22 -2 -43 6 -14 14 -23 18 -20 3 4 1 13 -5
20 -8 10 -8 17 -1 24 6 6 9 17 7 23 -2 8 -8 7 -17 -4z"/>
<path d="M6290 7590 c0 -5 9 -10 21 -10 11 0 17 5 14 10 -3 6 -13 10 -21 10
-8 0 -14 -4 -14 -10z"/>
<path d="M3525 7570 c-3 -6 1 -12 9 -15 9 -3 23 -7 31 -10 8 -2 14 -10 13 -16
-2 -6 3 -14 10 -16 24 -9 11 26 -17 46 -33 24 -37 25 -46 11z"/>
<path d="M3488 7563 c7 -3 16 -2 19 1 4 3 -2 6 -13 5 -11 0 -14 -3 -6 -6z"/>
<path d="M5190 7501 c0 -10 9 -29 19 -42 15 -18 22 -21 31 -12 15 14 3 36 -16
29 -11 -4 -13 1 -8 19 5 19 2 25 -10 25 -9 0 -16 -8 -16 -19z"/>
<path d="M6381 7504 c0 -11 3 -14 6 -6 3 7 2 16 -1 19 -3 4 -6 -2 -5 -13z"/>
<path d="M6503 7506 c5 -11 -1 -13 -27 -9 -38 6 -87 -14 -66 -27 10 -6 8 -13
-8 -31 -16 -17 -19 -26 -11 -36 13 -15 26 -9 52 23 19 24 71 54 94 54 22 0 10
22 -16 32 -18 6 -22 5 -18 -6z"/>
<path d="M7306 7504 c-11 -28 -6 -57 12 -70 21 -16 40 -18 25 -3 -7 7 -10 24
-7 39 7 31 -19 62 -30 34z"/>
<path d="M5424 7501 c3 -5 -1 -14 -9 -21 -8 -7 -12 -16 -9 -21 3 -5 0 -9 -5
-9 -6 0 -11 -4 -11 -10 0 -5 7 -10 15 -10 17 0 39 36 30 50 -3 6 -1 10 5 10 6
0 8 5 5 10 -3 6 -11 10 -16 10 -6 0 -8 -4 -5 -9z"/>
<path d="M5840 7491 c0 -5 7 -11 15 -15 9 -3 15 0 15 9 0 8 -7 15 -15 15 -8 0
-15 -4 -15 -9z"/>
<path d="M5960 7492 c0 -5 7 -13 16 -16 10 -4 14 -1 12 6 -5 15 -28 23 -28 10z"/>
<path d="M6004 7473 c-2 -20 2 -24 25 -21 33 4 34 29 1 38 -21 6 -25 3 -26
-17z"/>
<path d="M3056 7468 c-9 -36 -7 -48 10 -48 8 0 13 4 9 10 -3 5 9 13 27 18 30
8 54 42 29 42 -6 0 -8 -7 -4 -16 5 -15 3 -15 -25 0 -39 20 -39 20 -46 -6z"/>
<path d="M5907 7476 c-15 -7 -24 -15 -21 -19 4 -4 2 -7 -4 -7 -6 0 -14 5 -17
10 -8 13 -35 13 -35 0 0 -11 63 -42 103 -50 15 -3 27 -9 27 -15 -1 -5 -7 -9
-15 -7 -17 3 -24 -37 -10 -60 8 -14 5 -22 -15 -35 -44 -32 -90 -22 -90 18 0
11 -5 19 -11 19 -5 0 -7 4 -4 10 7 12 -12 50 -25 50 -6 0 -10 -8 -10 -19 0
-25 -41 -17 -71 15 -18 19 -20 26 -9 39 7 8 8 15 2 15 -5 0 -13 -8 -16 -17 -6
-15 -8 -15 -17 -3 -8 13 -10 13 -19 0 -18 -27 -12 -41 15 -34 14 3 25 2 25 -4
0 -17 -40 -21 -55 -5 -8 8 -21 13 -28 10 -6 -2 -22 0 -34 4 -18 7 -23 5 -23
-8 0 -9 -6 -24 -14 -32 -8 -9 -16 -23 -18 -31 -2 -8 -14 -20 -27 -27 -30 -17
-96 1 -87 22 3 9 0 12 -10 8 -16 -6 -20 12 -4 22 19 12 10 25 -16 25 -14 0
-33 9 -43 21 l-17 21 -27 -32 c-23 -26 -30 -30 -42 -20 -8 7 -15 21 -15 32 0
18 -2 19 -17 7 -15 -12 -16 -12 -11 3 4 10 1 19 -8 22 -20 8 -64 -3 -64 -15 0
-5 -11 -7 -25 -3 -19 5 -25 2 -25 -9 0 -9 10 -18 23 -20 21 -4 21 -4 1 -6 -14
-1 -24 -10 -28 -26 -9 -34 -23 -31 -24 5 0 17 4 30 9 30 6 0 6 8 -1 20 -13 24
-33 26 -50 5 -16 -19 -30 -19 -30 -1 0 8 8 16 18 19 9 2 -15 4 -55 4 -64 0
-74 -2 -87 -22 -15 -23 -63 -28 -88 -8 -19 16 -62 27 -54 15 4 -6 -9 -9 -34
-6 -26 2 -42 -1 -47 -10 -4 -8 -21 -16 -38 -18 -24 -2 -30 1 -30 16 0 11 -5
21 -10 23 -6 2 -11 -7 -10 -19 0 -26 -3 -28 -46 -28 -23 0 -30 4 -26 14 8 20
-15 37 -33 25 -12 -7 -12 -11 -2 -17 10 -7 10 -14 -3 -38 -10 -19 -15 -23 -15
-11 0 9 -7 17 -15 17 -7 0 -18 8 -24 17 -7 14 -12 15 -23 5 -8 -6 -17 -11 -19
-9 -2 1 2 -4 10 -10 19 -17 17 -18 -53 -36 -59 -15 -59 -15 -35 4 13 10 29 19
34 19 6 0 3 5 -5 10 -10 6 -20 4 -34 -8 -18 -16 -19 -16 -14 16 2 17 2 32 -1
32 -17 -1 -41 -30 -41 -50 0 -14 -5 -20 -13 -17 -10 4 -14 -4 -14 -25 0 -17
-7 -36 -16 -43 -9 -7 -17 -17 -17 -24 0 -15 -17 -14 -23 2 -3 6 -6 2 -6 -10
-1 -17 -10 -25 -43 -34 -24 -6 -51 -15 -60 -20 -10 -5 -25 -9 -33 -9 -8 0 -15
-4 -15 -10 0 -5 -9 -10 -19 -10 -11 0 -22 -4 -25 -9 -3 -4 -26 -14 -51 -21
-25 -7 -49 -20 -54 -28 -6 -10 -8 -1 -6 26 2 31 -2 42 -12 42 -9 0 -13 6 -10
13 4 10 -3 12 -25 9 -28 -4 -29 -7 -24 -35 4 -17 12 -34 18 -38 29 -18 -24
-34 -55 -17 -15 8 -18 7 -14 -4 2 -7 9 -12 14 -11 5 1 9 -8 8 -19 -1 -16 -9
-22 -28 -22 -23 -1 -25 2 -21 21 5 19 3 22 -10 17 -12 -5 -19 0 -23 14 -4 18
-8 19 -24 9 -23 -14 -25 -52 -4 -61 17 -6 21 -56 5 -56 -5 0 -10 4 -10 9 0 12
-50 44 -58 37 -3 -4 -1 -11 5 -17 8 -8 6 -17 -7 -32 -11 -11 -18 -23 -15 -26
2 -4 -5 -7 -16 -7 -10 0 -19 6 -19 13 0 8 -7 16 -15 19 -24 10 -17 22 15 29
33 7 39 22 14 32 -29 11 -59 -15 -61 -55 -2 -24 0 -32 6 -23 14 22 29 4 29
-33 0 -37 -21 -54 -43 -36 -7 6 -25 8 -40 4 -22 -5 -25 -11 -21 -30 5 -17 2
-24 -9 -24 -8 0 -15 -9 -15 -19 0 -22 -20 -32 -49 -24 -16 4 -20 2 -15 -10 9
-25 -13 -29 -30 -6 -17 25 -46 19 -46 -8 0 -14 2 -15 9 -4 5 7 14 10 20 6 20
-12 -9 -37 -36 -30 -20 5 -23 2 -23 -21 0 -17 -6 -28 -20 -31 -11 -3 -20 -12
-20 -19 0 -13 -12 -18 -32 -15 -5 0 -8 -3 -8 -9 0 -5 -7 -10 -16 -10 -9 0 -12
-5 -8 -12 5 -8 2 -9 -9 -5 -12 4 -21 -2 -32 -23 -9 -17 -22 -30 -29 -30 -8 0
-21 -12 -31 -26 -10 -15 -22 -23 -31 -20 -19 7 -45 -4 -38 -16 3 -5 11 -4 20
3 8 7 14 7 14 1 0 -11 -29 -26 -46 -23 -7 1 -15 -10 -18 -25 -4 -16 -12 -24
-20 -21 -10 4 -12 0 -9 -14 4 -15 2 -18 -12 -13 -15 6 -15 4 -5 -12 9 -15 7
-28 -11 -69 -13 -27 -22 -61 -21 -75 2 -23 -3 -27 -51 -38 -30 -7 -62 -10 -71
-6 -11 4 -19 -2 -26 -21 -19 -51 -28 -105 -18 -111 5 -3 4 -11 -3 -20 -7 -8
-9 -27 -5 -49 7 -34 6 -35 -25 -35 -25 0 -29 -3 -20 -13 6 -8 7 -17 3 -21 -4
-4 -7 -13 -7 -18 0 -6 -15 -20 -34 -30 -42 -24 -67 -53 -81 -95 -7 -18 -16
-33 -21 -33 -12 0 -12 -67 1 -75 25 -15 -29 -135 -61 -135 -5 0 -9 -5 -9 -11
0 -5 4 -7 10 -4 15 10 12 -2 -6 -20 -11 -11 -17 -37 -19 -76 -1 -33 -5 -62 -9
-66 -11 -11 -7 -63 5 -63 7 0 10 12 7 28 -2 16 2 34 9 41 11 9 13 4 12 -31 -2
-59 -12 -102 -24 -99 -5 1 -9 13 -7 26 2 14 -1 25 -7 25 -12 0 -13 -10 -13
-85 1 -190 6 -213 16 -81 6 89 20 117 29 59 5 -38 1 -137 -7 -160 -3 -6 -2
-14 2 -18 4 -4 7 -21 8 -38 0 -18 5 -59 9 -92 5 -33 9 -69 10 -80 8 -110 78
-286 144 -361 23 -26 41 -51 41 -55 0 -5 7 -9 15 -9 8 0 20 -9 27 -21 11 -18
124 -79 147 -79 5 0 12 -7 15 -16 4 -9 9 -14 12 -11 10 10 94 -24 87 -36 -4
-6 2 -8 18 -4 13 3 41 2 64 -3 22 -5 54 -11 70 -13 17 -2 37 -7 45 -10 8 -4
58 -13 110 -22 52 -9 109 -18 125 -21 17 -3 38 -6 47 -6 10 1 20 -3 23 -8 3
-5 11 -7 18 -4 7 2 34 -2 60 -10 l47 -14 0 103 c0 83 5 120 25 183 14 43 34
87 45 97 31 28 24 38 -10 13 -27 -20 -42 -22 -143 -22 -111 -1 -113 0 -185 38
-40 22 -88 53 -107 70 -103 96 -130 124 -165 171 -21 28 -51 65 -68 81 -28 29
-86 128 -87 149 0 6 -3 15 -7 20 -3 6 -7 62 -9 125 -2 99 0 123 19 170 12 30
22 62 22 70 0 9 18 35 40 59 22 23 43 55 46 69 3 15 12 39 19 53 11 20 14 62
11 185 -2 88 -2 162 0 166 7 12 43 -4 49 -22 3 -10 13 -17 23 -15 9 2 20 4 25
4 4 1 7 18 7 39 0 20 3 61 7 90 5 45 10 55 34 68 17 8 29 23 29 34 0 13 15 26
50 42 34 16 50 29 50 42 0 14 5 17 21 13 15 -4 35 9 80 55 32 34 59 64 59 67
0 4 11 8 25 9 25 2 25 1 10 -22 -9 -13 -23 -27 -31 -30 -8 -3 -14 -15 -14 -26
0 -11 -7 -20 -15 -20 -9 0 -12 -6 -9 -15 4 -9 1 -15 -7 -15 -8 0 -36 -16 -63
-35 -27 -19 -58 -35 -68 -35 -10 0 -18 -4 -18 -10 0 -13 -32 -45 -56 -54 -11
-5 -14 -10 -8 -13 13 -4 7 -40 -8 -60 -5 -6 -8 -24 -7 -40 3 -36 -11 -93 -23
-93 -10 0 -28 -14 -63 -50 -21 -21 -24 -30 -18 -65 4 -22 7 -70 8 -107 0 -56
-4 -70 -23 -91 -13 -13 -22 -28 -20 -33 4 -13 -32 -57 -64 -78 -18 -12 -28
-27 -28 -43 0 -47 -32 -141 -62 -184 -7 -10 -8 -24 -3 -35 11 -26 12 -37 4
-49 -32 -44 37 -219 116 -295 26 -25 65 -64 88 -87 22 -24 47 -43 55 -43 8 0
29 -15 46 -33 17 -18 63 -48 101 -66 112 -54 270 -54 344 -2 14 10 41 22 59
26 17 3 32 10 32 15 0 4 37 33 83 64 193 130 239 166 325 251 51 50 92 93 92
98 0 4 20 32 45 63 25 30 45 59 45 64 0 6 11 10 25 10 35 0 32 -21 -13 -99
-48 -84 -55 -101 -39 -101 12 0 96 15 142 25 51 11 171 47 180 54 5 5 28 14
50 20 22 7 47 15 55 18 8 3 20 7 25 8 6 2 31 17 57 34 25 17 49 31 53 31 10 0
131 105 163 142 48 56 100 186 117 296 5 33 11 42 23 40 15 -3 16 -16 13 -93
-2 -62 -9 -101 -22 -126 -10 -20 -15 -39 -12 -43 6 -6 13 -5 163 15 47 6 99
12 115 14 50 5 159 26 180 35 11 5 62 21 113 35 96 28 282 110 282 125 0 4 18
22 41 38 49 37 99 129 99 185 0 45 -37 137 -55 137 -15 0 -65 45 -65 60 0 5 7
10 15 10 8 0 15 -4 15 -10 0 -5 7 -10 15 -10 25 0 104 -50 140 -88 44 -47 46
-93 9 -187 -7 -20 -60 -103 -79 -126 -41 -48 -132 -117 -210 -157 -75 -39
-230 -92 -269 -92 -9 0 -25 -4 -34 -9 -9 -5 -42 -12 -72 -16 -30 -4 -59 -9
-63 -12 -4 -2 -31 -7 -60 -9 -29 -3 -72 -9 -97 -14 -25 -5 -63 -12 -86 -14
-56 -6 -108 -29 -127 -56 -22 -31 -179 -150 -199 -150 -9 0 -20 -5 -23 -10
-22 -35 -275 -132 -390 -149 -68 -11 -145 -27 -175 -38 -8 -4 -19 -7 -25 -9
-31 -7 -65 -25 -65 -33 0 -5 -43 -42 -96 -83 -53 -40 -113 -88 -134 -105 -20
-18 -42 -33 -48 -33 -21 0 -86 -46 -141 -101 -61 -61 -117 -155 -128 -216 -14
-71 -8 -205 12 -268 39 -126 80 -166 271 -264 25 -13 66 -39 90 -57 24 -19 48
-34 53 -34 5 0 11 -4 13 -9 1 -5 28 -22 58 -39 30 -16 75 -40 100 -54 25 -13
65 -31 90 -38 25 -8 54 -19 65 -26 53 -32 329 -55 425 -35 30 6 71 13 90 16
55 9 172 59 254 109 42 25 79 46 82 46 7 0 75 48 127 91 56 44 152 109 164
109 7 0 14 4 17 8 3 5 -16 5 -42 1 -120 -20 -428 -4 -519 27 l-42 15 -38 -38
c-21 -21 -56 -47 -78 -58 -22 -11 -41 -23 -43 -27 -5 -11 -68 -26 -146 -34
-56 -5 -68 -4 -64 7 3 8 20 18 39 24 131 39 328 261 425 480 30 68 54 131 54
140 0 9 8 30 17 45 14 24 15 34 5 55 -27 58 -2 63 28 5 39 -76 15 -216 -60
-363 -48 -93 -50 -100 -33 -112 10 -8 33 -16 52 -20 38 -7 231 4 246 14 12 8
83 25 179 42 38 6 81 18 95 25 14 8 33 14 42 14 10 0 86 18 171 39 84 22 169
43 187 46 19 3 37 8 41 10 5 3 150 30 265 50 21 3 101 13 335 40 74 9 143 18
152 21 9 3 25 7 35 9 57 13 175 51 237 77 39 16 85 34 101 40 41 14 115 52
115 59 0 3 20 16 45 28 25 12 45 26 45 31 0 4 15 15 33 23 86 41 260 253 292
356 4 12 18 39 31 58 18 27 24 49 24 93 0 62 25 160 41 160 6 0 7 -9 3 -22
-16 -51 -24 -96 -24 -144 0 -32 -5 -56 -14 -63 -8 -6 -16 -25 -19 -41 -8 -40
-8 -41 -47 -155 -32 -97 -50 -127 -132 -220 -21 -23 -38 -45 -38 -49 0 -4 -26
-31 -57 -61 l-58 -55 126 0 c159 0 215 11 282 53 67 43 172 146 182 178 4 13
23 60 43 104 20 44 35 92 34 108 -2 16 4 30 12 33 8 3 14 19 14 39 0 19 4 40
8 47 9 13 24 184 23 252 0 38 41 139 62 152 17 10 22 -3 15 -41 -5 -27 -11
-35 -22 -31 -12 5 -15 -4 -15 -42 1 -26 -3 -81 -8 -122 -5 -41 -7 -78 -5 -81
2 -4 -3 -10 -12 -13 -12 -5 -13 -10 -6 -19 18 -22 -68 -326 -103 -367 -7 -8
-21 -40 -30 -72 -9 -31 -29 -75 -45 -97 -17 -22 -30 -45 -30 -50 0 -5 -20 -29
-45 -53 -45 -43 -55 -64 -32 -65 60 -4 105 -4 124 1 95 22 188 134 208 254 4
23 13 49 21 56 8 8 14 19 14 25 0 5 14 45 31 88 16 43 36 116 43 163 14 95 11
256 -7 310 -6 19 -11 40 -12 45 0 6 -9 28 -19 50 -10 22 -19 51 -21 65 -7 78
-20 118 -49 151 -38 43 -88 107 -99 126 -9 15 0 53 12 53 13 0 -3 63 -16 67
-7 3 -11 -7 -11 -26 1 -17 6 -31 12 -31 6 0 6 -4 -1 -11 -18 -18 -33 0 -33 39
0 25 -7 43 -20 55 -12 10 -20 29 -20 49 -1 53 -18 114 -45 155 -47 73 -56 83
-74 83 -23 0 -71 51 -53 57 14 5 17 49 3 57 -4 3 -11 23 -15 45 -4 28 -12 42
-27 46 -35 11 -90 66 -106 106 -15 39 -52 73 -113 104 -19 10 -51 34 -71 54
-42 42 -59 56 -114 95 -55 39 -117 104 -110 115 3 5 1 12 -5 16 -5 3 -10 1
-10 -5 0 -6 -15 0 -33 14 -17 13 -43 27 -57 29 -14 2 -38 9 -53 15 -16 7 -33
12 -38 12 -5 0 -9 7 -9 15 0 17 -39 36 -54 27 -5 -3 -7 10 -4 29 l6 34 -43 -3
-42 -4 2 41 c2 36 -1 42 -22 48 -30 7 -46 -12 -38 -44 9 -40 -23 -37 -77 6
-16 12 -18 12 -18 0 0 -8 -18 -33 -40 -54 -22 -21 -40 -47 -40 -57 0 -20 -8
-22 -29 -9 -10 7 -11 13 -1 31 11 20 9 25 -11 41 l-24 19 25 0 c20 0 22 2 10
10 -11 7 -12 10 -2 10 9 0 11 7 7 20 -5 14 -2 20 9 20 9 0 16 -5 16 -10 0 -6
11 -3 24 7 15 11 20 21 13 25 -6 4 -15 4 -19 2 -4 -3 -8 2 -8 10 0 9 4 16 9
16 13 0 10 52 -4 66 -14 15 -52 8 -76 -13 -21 -18 -46 -7 -54 24 -4 16 -11 23
-20 19 -9 -3 -15 1 -15 9 0 8 7 15 15 15 8 0 15 5 15 10 0 6 -6 10 -14 10 -14
0 -14 29 -1 63 5 12 2 17 -11 17 -13 1 -9 5 11 14 17 7 33 14 38 14 12 3 47
41 47 52 0 6 -9 10 -19 10 -11 0 -21 5 -23 11 -2 5 -11 7 -21 3 -13 -5 -15
-10 -7 -19 16 -19 -5 -29 -31 -15 -33 18 -38 1 -24 -77 5 -26 4 -43 -2 -43 -5
0 -8 -14 -5 -30 5 -35 -8 -53 -51 -75 -41 -20 -53 -19 -72 8 -13 19 -17 20
-25 7 -13 -20 -13 -33 0 -25 6 3 10 1 10 -4 0 -16 -27 -13 -34 4 -6 18 -36 9
-36 -11 0 -18 -24 -18 -40 1 -10 12 -5 17 24 29 20 8 39 22 42 30 3 9 10 13
16 10 5 -3 1 -12 -8 -18 -11 -8 -13 -15 -7 -19 14 -9 36 18 39 48 1 12 -6 32
-16 43 -10 11 -16 23 -13 26 4 3 3 6 -2 6 -4 0 -18 -11 -31 -26 -13 -14 -24
-22 -24 -18 0 3 -7 0 -16 -7 -14 -11 -19 -9 -35 11 -10 14 -19 28 -19 33 0 13
-29 7 -65 -13 -20 -11 -44 -20 -55 -20 -10 0 -26 -10 -34 -22 l-16 -22 -20 22
c-22 23 -50 30 -50 11 0 -5 5 -7 10 -4 6 3 10 1 10 -4 0 -16 -16 -13 -35 5
-14 15 -14 18 0 33 8 10 15 25 15 33 0 11 6 14 20 11 11 -3 20 0 20 6 0 6 -7
11 -15 11 -8 0 -15 5 -15 10 0 6 6 10 14 8 8 -2 14 1 13 7 -1 5 -7 10 -13 10
-6 0 -19 8 -29 18 -11 11 -26 16 -39 13 -12 -3 -28 -1 -36 4 -13 8 -12 10 2
10 10 0 22 9 28 20 12 23 7 24 -33 6z m-987 -93 c0 -8 8 -13 18 -11 10 2 17
-3 17 -12 0 -17 -48 -16 -53 0 -2 6 -8 8 -12 5 -5 -3 -14 3 -20 14 -8 16 -6
22 7 30 20 11 43 -3 43 -26z m120 -8 c0 -7 -7 -16 -16 -19 -24 -9 -54 -7 -54
4 0 6 9 10 19 10 10 0 22 7 25 16 7 17 26 10 26 -11z m191 -22 c17 -14 23 -60
9 -68 -4 -3 -7 3 -6 13 0 9 -5 16 -12 14 -8 -1 -16 7 -19 18 -3 11 -9 20 -14
20 -5 0 -9 7 -9 15 0 16 25 11 51 -12z m-411 2 c-7 -9 -15 -13 -17 -11 -7 7 7
26 19 26 6 0 6 -6 -2 -15z m499 -36 c-21 -39 -40 -8 -22 37 6 16 7 16 19 -1 9
-13 10 -23 3 -36z m646 41 c3 -5 -1 -10 -9 -10 -9 0 -16 5 -16 10 0 6 4 10 9
10 6 0 13 -4 16 -10z m-783 -25 c-2 -5 -8 -9 -13 -7 -5 1 -9 -3 -9 -9 0 -7
-12 -8 -32 -4 -41 9 -50 14 -43 25 7 11 101 7 97 -5z m548 11 c0 -2 -9 -6 -20
-9 -11 -3 -20 -1 -20 4 0 5 9 9 20 9 11 0 20 -2 20 -4z m-1271 -36 c-21 -14
-32 1 -12 15 12 9 19 10 22 3 2 -6 -3 -14 -10 -18z m568 8 c-3 -8 -6 -5 -6 6
-1 11 2 17 5 13 3 -3 4 -12 1 -19z m778 2 c3 -5 1 -10 -4 -10 -6 0 -11 5 -11
10 0 6 2 10 4 10 3 0 8 -4 11 -10z m-590 -30 c-3 -5 -12 -10 -18 -10 -7 0 -6
4 3 10 19 12 23 12 15 0z m715 -52 c0 6 4 12 9 12 5 0 7 -9 4 -19 -4 -17 -8
-18 -23 -8 -10 6 -16 15 -13 20 3 5 9 3 14 -4 6 -10 9 -11 9 -1z m-55 -8 c-3
-5 -11 -10 -16 -10 -6 0 -7 5 -4 10 3 6 11 10 16 10 6 0 7 -4 4 -10z m-1725
-40 c0 -5 -5 -10 -11 -10 -5 0 -7 5 -4 10 3 6 8 10 11 10 2 0 4 -4 4 -10z
m1680 -10 c0 -5 -5 -10 -11 -10 -5 0 -7 5 -4 10 3 6 8 10 11 10 2 0 4 -4 4
-10z m-1488 -32 c-7 -7 -12 -8 -12 -2 0 14 12 26 19 19 2 -3 -1 -11 -7 -17z
m1188 12 c0 -5 -5 -10 -11 -10 -5 0 -7 5 -4 10 3 6 8 10 11 10 2 0 4 -4 4 -10z
m900 -22 c0 -22 -16 -24 -24 -3 -3 9 -12 12 -23 9 -14 -5 -15 -4 -4 4 22 16
51 10 51 -10z m-330 -8 c0 -5 -4 -10 -10 -10 -5 0 -10 5 -10 10 0 6 5 10 10
10 6 0 10 -4 10 -10z m30 -10 c0 -5 -5 -10 -11 -10 -5 0 -7 5 -4 10 3 6 8 10
11 10 2 0 4 -4 4 -10z m155 -30 c1 -11 -5 -26 -14 -34 -14 -12 -19 -11 -35 5
-15 14 -16 19 -5 19 8 0 20 9 27 21 15 23 25 19 27 -11z m410 20 c3 -5 1 -10
-4 -10 -6 0 -11 5 -11 10 0 6 2 10 4 10 3 0 8 -4 11 -10z m-2932 -45 c-3 -9
-8 -14 -10 -11 -3 3 -2 9 2 15 9 16 15 13 8 -4z m1492 5 c3 -5 -1 -10 -9 -10
-8 0 -18 5 -21 10 -3 6 1 10 9 10 8 0 18 -4 21 -10z m-1215 -20 c0 -5 -4 -10
-10 -10 -5 0 -10 5 -10 10 0 6 5 10 10 10 6 0 10 -4 10 -10z m-240 -30 c0 -5
-4 -10 -9 -10 -6 0 -13 5 -16 10 -3 6 1 10 9 10 9 0 16 -4 16 -10z m1475 -10
c3 -5 1 -10 -4 -10 -6 0 -11 5 -11 10 0 6 2 10 4 10 3 0 8 -4 11 -10z m315
-20 c0 -5 -2 -10 -4 -10 -3 0 -8 5 -11 10 -3 6 -1 10 4 10 6 0 11 -4 11 -10z
m-175 -10 c3 -5 1 -10 -4 -10 -6 0 -11 5 -11 10 0 6 2 10 4 10 3 0 8 -4 11
-10z m860 -25 c6 -3 -8 -4 -30 -4 -138 3 -185 -1 -185 -15 0 -8 -14 -21 -31
-30 -31 -15 -31 -15 -25 9 6 23 4 25 -31 25 -24 0 -34 3 -27 10 6 6 21 6 40 1
21 -6 41 -4 62 5 20 8 50 11 81 7 29 -3 51 -1 55 5 5 9 53 2 91 -13z m65 5 c0
-5 -2 -10 -4 -10 -3 0 -8 5 -11 10 -3 6 -1 10 4 10 6 0 11 -4 11 -10z m200 0
c0 -5 -7 -10 -16 -10 -8 0 -12 5 -9 10 3 6 10 10 16 10 5 0 9 -4 9 -10z m300
1 c0 -16 -28 -32 -65 -38 -33 -5 -37 -4 -33 13 2 12 14 21 33 24 49 9 65 9 65
1z m-2400 -43 c0 -10 -4 -18 -9 -18 -13 0 -21 27 -14 46 5 13 7 13 14 2 5 -7
9 -21 9 -30z m340 7 c7 -9 8 -15 2 -15 -5 0 -12 7 -16 15 -3 8 -4 15 -2 15 2
0 9 -7 16 -15z m1057 9 c-3 -3 -12 -4 -19 -1 -8 3 -5 6 6 6 11 1 17 -2 13 -5z
m78 -14 c-14 -16 -17 -30 -12 -75 3 -32 1 -57 -5 -61 -5 -3 -7 -16 -5 -28 5
-19 -9 -72 -14 -53 -4 17 -6 23 -13 40 -5 9 -5 28 -2 41 11 46 -24 22 -50 -33
-33 -72 -32 -139 3 -211 14 -30 31 -65 36 -77 6 -13 17 -25 26 -28 9 -3 32
-28 51 -56 19 -27 53 -60 75 -72 33 -18 42 -30 49 -64 13 -61 2 -90 -39 -107
-19 -8 -35 -22 -35 -30 0 -10 -9 -16 -24 -16 -19 0 -23 4 -19 20 3 11 8 20 12
20 16 0 43 63 38 88 -6 32 -90 163 -112 175 -46 25 -114 189 -101 242 3 13 2
27 -4 30 -7 4 -6 13 1 26 5 11 9 30 7 43 -1 13 12 43 35 74 20 29 37 58 37 66
0 14 57 66 73 66 6 0 2 -9 -8 -20z m379 -6 c3 -8 10 -14 15 -14 6 0 8 7 5 15
-4 10 0 15 15 15 19 0 21 -6 23 -72 2 -98 1 -106 -19 -133 -18 -24 -51 -36
-37 -13 5 7 2 9 -8 6 -21 -8 -42 27 -24 41 9 7 16 7 24 -1 15 -15 28 -2 14 15
-7 9 -8 26 -1 55 10 44 6 62 -12 62 -6 0 -7 -4 -4 -10 3 -6 -5 -10 -18 -10
-14 0 -27 7 -31 15 -4 10 1 15 14 15 11 0 20 4 20 10 0 5 -8 6 -17 3 -16 -6
-16 -5 -5 10 15 17 37 13 46 -9z m-2794 6 c0 -5 -5 -10 -11 -10 -5 0 -7 5 -4
10 3 6 8 10 11 10 2 0 4 -4 4 -10z m1634 -5 c3 -8 1 -15 -4 -15 -6 0 -10 7
-10 15 0 8 2 15 4 15 2 0 6 -7 10 -15z m1328 -15 l22 -20 -27 0 c-20 0 -27 5
-27 20 0 11 2 20 5 20 3 0 15 -9 27 -20z m-2422 0 c0 -5 -5 -10 -11 -10 -5 0
-7 5 -4 10 3 6 8 10 11 10 2 0 4 -4 4 -10z m-634 -37 c-10 -10 -19 5 -10 18 6
11 8 11 12 0 2 -7 1 -15 -2 -18z m2791 21 c-3 -3 -12 -4 -19 -1 -8 3 -5 6 6 6
11 1 17 -2 13 -5z m-1747 -14 c0 -5 -2 -10 -4 -10 -3 0 -8 5 -11 10 -3 6 -1
10 4 10 6 0 11 -4 11 -10z m900 -10 c0 -5 -4 -10 -10 -10 -5 0 -10 5 -10 10 0
6 5 10 10 10 6 0 10 -4 10 -10z m195 0 c3 -5 1 -10 -4 -10 -6 0 -11 5 -11 10
0 6 2 10 4 10 3 0 8 -4 11 -10z m205 -10 c0 -5 -4 -10 -10 -10 -5 0 -10 5 -10
10 0 6 5 10 10 10 6 0 10 -4 10 -10z m1188 -2 c-3 -7 -11 -13 -18 -13 -7 0
-15 6 -17 13 -3 7 4 12 17 12 13 0 20 -5 18 -12z m-278 -23 c0 -8 3 -15 8 -15
8 0 27 -42 37 -84 6 -26 5 -28 -10 -16 -22 19 -47 68 -40 80 4 6 -1 13 -9 16
-20 8 -21 34 -1 34 8 0 15 -7 15 -15z m-2058 -40 c0 -6 3 -14 8 -20 13 -16
-47 -12 -62 4 -11 11 -8 13 17 7 27 -6 28 -5 13 7 -24 19 -23 28 3 19 11 -5
21 -12 21 -17z m150 4 c12 -3 15 -8 9 -18 -7 -11 -13 -9 -30 8 -23 23 -29 40
-8 23 6 -5 20 -11 29 -13z m1859 -21 c19 -24 25 -48 11 -48 -16 0 -54 48 -47
59 9 16 14 14 36 -11z m515 11 c4 -7 -3 -20 -16 -29 -19 -14 -28 -15 -42 -7
-24 16 -23 26 5 37 31 12 45 12 53 -1z m-2476 -20 c0 -6 -4 -7 -10 -4 -5 3
-10 11 -10 16 0 6 5 7 10 4 6 -3 10 -11 10 -16z m559 -12 c-2 -18 1 -38 5 -45
13 -22 2 -22 -24 -1 -24 18 -24 20 -7 33 10 8 15 20 11 30 -3 9 -1 16 6 16 7
0 10 -13 9 -33z m831 19 c0 -3 -4 -8 -10 -11 -5 -3 -10 -1 -10 4 0 6 5 11 10
11 6 0 10 -2 10 -4z m-1065 -16 c3 -5 1 -10 -4 -10 -6 0 -11 5 -11 10 0 6 2
10 4 10 3 0 8 -4 11 -10z m1888 -22 c-3 -16 -13 -28 -26 -32 -33 -8 -33 1 -1
33 16 16 30 29 31 28 1 -1 -1 -14 -4 -29z m-2163 1 c0 -6 -4 -7 -10 -4 -5 3
-10 11 -10 16 0 6 5 7 10 4 6 -3 10 -11 10 -16z m75 11 c4 -6 -6 -10 -24 -10
-16 0 -33 5 -36 10 -4 6 6 10 24 10 16 0 33 -4 36 -10z m95 -5 c11 -13 8 -15
-15 -15 -23 0 -26 2 -15 15 7 8 14 15 15 15 1 0 8 -7 15 -15z m2415 5 c4 -6
11 -8 16 -5 5 4 9 0 9 -7 0 -7 15 -20 33 -28 17 -8 34 -24 36 -35 2 -11 8 -24
15 -28 6 -5 1 -7 -14 -5 -19 2 -28 -4 -39 -27 -8 -16 -19 -33 -24 -37 -11 -7
-36 -89 -37 -120 0 -10 5 -18 11 -18 5 0 34 -11 62 -25 36 -17 56 -34 66 -55
8 -20 28 -38 57 -52 24 -11 44 -24 44 -30 0 -5 8 -18 18 -28 10 -11 30 -56 45
-101 22 -63 25 -84 16 -95 -10 -12 -14 -12 -25 3 -7 10 -14 13 -14 7 0 -6 15
-31 34 -54 33 -42 34 -45 19 -73 -10 -20 -12 -32 -4 -40 6 -6 8 -28 4 -53 -3
-24 -2 -51 2 -61 4 -10 9 -36 12 -58 8 -70 10 -79 21 -107 8 -19 19 -28 33
-28 17 0 19 -3 10 -14 -14 -17 2 -31 22 -20 6 4 9 4 5 -1 -4 -4 -2 -17 3 -28
9 -16 13 -17 20 -6 6 10 9 10 9 2 0 -7 -9 -17 -19 -23 -24 -12 -34 -13 -27 -1
11 17 -6 42 -22 36 -9 -3 -14 -3 -10 0 3 3 -11 24 -32 46 -35 38 -37 45 -49
142 -6 56 -15 113 -20 127 -4 14 -4 38 0 53 5 20 4 30 -6 33 -30 12 -43 164
-15 164 5 0 1 16 -10 35 -11 19 -17 35 -15 35 11 0 -28 64 -56 94 -16 17 -29
34 -29 38 0 4 -27 20 -61 37 -53 26 -58 31 -42 41 16 10 16 11 -4 7 -21 -5
-63 24 -63 43 0 16 -46 12 -60 -5 -7 -8 -16 -15 -21 -15 -13 0 38 94 61 115
11 10 20 22 20 27 0 6 9 21 20 35 20 26 18 48 -4 40 -7 -3 -19 -1 -27 4 -11 7
-11 9 4 9 19 0 23 15 6 26 -7 4 -16 -1 -21 -10 -5 -9 -17 -16 -26 -16 -14 1
-13 4 6 20 13 11 21 24 17 30 -4 6 4 10 19 10 14 0 28 5 31 10 3 6 -1 10 -9
10 -9 0 -16 5 -16 10 0 6 -12 10 -26 10 -14 0 -23 4 -19 10 8 13 52 13 60 0z
m-2615 -4 c0 -3 -4 -8 -10 -11 -5 -3 -10 -1 -10 4 0 6 5 11 10 11 6 0 10 -2
10 -4z m-1150 -28 c0 -19 -6 -23 -31 -25 -26 -2 -29 0 -19 12 6 7 18 11 26 8
8 -3 14 1 14 11 0 9 2 16 5 16 3 0 5 -10 5 -22z m3700 -27 c0 -5 -7 -14 -15
-21 -8 -7 -12 -16 -9 -21 3 -5 0 -9 -6 -9 -7 0 -9 -7 -6 -16 6 -15 4 -15 -10
-3 -14 11 -16 10 -12 -11 2 -17 10 -26 26 -28 12 -2 22 -7 22 -11 0 -13 -60
-19 -110 -12 -45 7 -45 7 -20 21 14 7 25 11 25 9 0 -2 11 6 25 19 l24 22 -30
0 c-17 0 -35 5 -41 11 -15 15 -70 -11 -116 -56 -33 -32 -43 -36 -69 -31 -37 7
-125 72 -131 96 -7 26 28 14 48 -16 9 -14 26 -29 38 -33 63 -24 67 -23 96 7
43 47 92 70 145 70 26 -1 46 -6 46 -12 0 -8 2 -8 8 0 16 25 72 44 72 25z
m-3155 -11 c3 -5 -1 -10 -10 -10 -9 0 -13 5 -10 10 3 6 8 10 10 10 2 0 7 -4
10 -10z m-611 -16 c16 -15 13 -34 -4 -34 -5 0 -7 7 -4 15 4 8 1 15 -5 15 -6 0
-11 5 -11 10 0 14 6 13 24 -6z m3271 6 c3 -5 1 -10 -4 -10 -6 0 -11 5 -11 10
0 6 2 10 4 10 3 0 8 -4 11 -10z m-585 -30 c0 -5 -7 -10 -15 -10 -8 0 -15 5
-15 10 0 6 7 10 15 10 8 0 15 -4 15 -10z m-2485 -58 c-20 -4 -20 -4 -30 28
l-7 25 27 -25 c22 -21 24 -26 10 -28z m172 12 c-3 -4 -14 -3 -24 0 -15 6 -15
8 -3 16 16 10 39 -4 27 -16z m158 15 c12 -19 -5 -23 -22 -6 -16 16 -16 17 -1
17 9 0 20 -5 23 -11z m-365 -50 c0 -16 -7 -29 -17 -33 -10 -3 -25 -9 -33 -12
-9 -3 -7 2 5 13 11 10 20 24 21 31 1 6 2 22 3 35 1 18 3 19 11 7 5 -8 10 -27
10 -41z m3844 8 c7 -6 6 -7 -4 -4 -8 2 -16 12 -17 23 -2 13 -1 15 4 4 3 -8 11
-19 17 -23z m-4175 -3 c-8 -10 -16 -11 -22 -5 -6 6 -16 6 -28 -2 -10 -6 -21
-8 -25 -4 -11 10 0 18 30 21 14 1 29 6 32 9 13 13 25 -5 13 -19z m271 20 c0
-3 -5 -14 -10 -25 -9 -15 -15 -17 -30 -9 -23 12 -27 35 -5 27 8 -4 17 -2 20 3
7 11 25 14 25 4z m1400 -21 c0 -10 -4 -14 -8 -8 -4 6 -11 13 -16 18 -5 4 -2 7
7 7 10 0 17 -8 17 -17z m2295 7 c3 -5 1 -10 -4 -10 -6 0 -11 5 -11 10 0 6 2
10 4 10 3 0 8 -4 11 -10z m-3591 -14 c-9 -23 -33 -28 -27 -5 3 10 11 19 19 19
7 0 11 -6 8 -14z m1036 4 c0 -5 -5 -10 -11 -10 -5 0 -7 5 -4 10 3 6 8 10 11
10 2 0 4 -4 4 -10z m730 -10 c6 -11 7 -26 3 -33 -4 -6 -8 -30 -10 -52 -1 -22
-2 -48 -3 -57 -1 -10 -8 -18 -16 -18 -8 0 -14 -6 -14 -14 0 -7 -7 -19 -15 -26
-9 -7 -13 -21 -10 -31 3 -10 -3 -36 -15 -58 -11 -22 -20 -54 -20 -71 0 -23 -4
-30 -20 -30 -16 0 -20 7 -20 34 0 40 38 146 52 146 6 0 8 6 5 13 -3 7 1 24 8
37 7 13 11 30 8 37 -3 7 -1 13 5 13 11 0 48 98 44 118 -4 19 6 14 18 -8z
m1324 5 c3 -8 1 -15 -4 -15 -6 0 -10 7 -10 15 0 8 2 15 4 15 2 0 6 -7 10 -15z
m-2794 -16 c0 -6 -4 -7 -10 -4 -5 3 -10 11 -10 16 0 6 5 7 10 4 6 -3 10 -11
10 -16z m320 -4 c0 -8 -6 -12 -14 -9 -8 3 -12 12 -9 20 6 17 23 9 23 -11z
m-756 -16 c-3 -5 -12 -9 -20 -9 -8 0 -17 -7 -20 -15 -4 -8 -17 -15 -30 -15
-26 0 -32 -14 -11 -24 10 -5 10 -7 0 -12 -16 -7 -17 -34 -2 -34 17 0 -19 -43
-38 -46 -9 -2 -23 2 -30 8 -9 8 -13 7 -13 -2 0 -8 -2 -11 -5 -8 -11 11 28 86
42 81 7 -3 13 -11 13 -18 0 -8 4 -17 10 -20 6 -4 7 2 1 17 -5 13 -7 36 -4 50
4 20 10 25 29 23 13 -1 24 3 24 9 0 20 21 34 41 29 10 -3 16 -9 13 -14z m420
-42 c1 -44 0 -46 -24 -40 -23 6 -24 5 -8 -10 9 -9 21 -17 27 -17 6 0 8 -7 5
-15 -4 -8 -10 -12 -15 -9 -5 3 -9 -3 -10 -13 -1 -10 -2 -27 -3 -38 0 -13 -9
-21 -23 -23 -15 -2 -23 -10 -23 -22 0 -10 -4 -21 -9 -24 -5 -4 -12 -23 -16
-45 -5 -30 -23 -55 -80 -115 -40 -42 -78 -76 -85 -76 -7 0 -10 -7 -6 -15 3 -9
-1 -18 -9 -21 -8 -4 -15 -10 -15 -16 0 -13 -104 -118 -117 -118 -6 0 -14 -7
-17 -16 -4 -10 -2 -13 7 -9 6 4 4 0 -6 -8 -10 -9 -28 -33 -40 -54 -18 -33 -21
-55 -21 -164 -1 -121 0 -127 27 -166 27 -39 77 -83 95 -83 13 0 71 -30 77 -39
6 -10 -52 -7 -62 3 -3 3 -16 6 -28 6 -22 0 -87 30 -117 53 -22 17 -48 138 -48
222 -2 135 62 301 121 320 11 4 18 13 15 20 -5 15 27 49 37 38 4 -3 7 3 7 15
0 15 6 22 19 22 13 0 20 9 25 30 4 24 11 30 31 30 17 0 25 5 25 18 0 19 42 62
60 62 5 0 14 9 20 19 5 11 23 33 40 49 16 17 30 40 30 52 0 11 9 31 20 43 11
12 18 27 16 34 -3 7 -1 15 4 18 6 4 10 20 10 36 0 22 6 32 25 39 25 10 32 24
16 34 -12 8 -1 48 12 43 6 -2 11 -24 11 -50z m2806 43 c0 -5 -9 -14 -20 -20
-23 -12 -26 -6 -7 15 14 17 27 19 27 5z m194 -28 c13 -20 31 -43 40 -51 20
-16 21 -31 2 -31 -11 0 -86 100 -86 115 0 17 23 0 44 -33z m591 28 c3 -5 -1
-10 -9 -10 -9 0 -16 5 -16 10 0 6 4 10 9 10 6 0 13 -4 16 -10z m-1197 -7 c-10
-2 -28 -2 -40 0 -13 2 -5 4 17 4 22 1 32 -1 23 -4z m102 -13 c8 -5 11 -10 5
-10 -5 0 -17 5 -25 10 -8 5 -10 10 -5 10 6 0 17 -5 25 -10z m-2326 -16 c10
-25 -1 -29 -14 -5 -6 12 -7 21 -1 21 5 0 12 -7 15 -16z m1942 4 c4 -7 3 -8 -4
-4 -7 4 -12 2 -12 -3 0 -6 -5 -11 -11 -11 -8 0 -8 5 1 15 15 18 17 18 26 3z
m-61 -27 c-11 -5 -36 -11 -55 -14 -35 -6 -34 -6 5 8 43 14 84 19 50 6z m-1325
-27 c0 -8 -5 -12 -10 -9 -6 4 -8 11 -5 16 9 14 15 11 15 -7z m216 -7 c2 -7 3
-107 2 -222 -3 -207 -3 -209 -20 -175 l-18 35 -1 -30 c-1 -25 -3 -22 -10 15
-13 67 -17 363 -4 377 13 16 44 16 51 0z m1714 4 c0 -12 -20 -25 -27 -18 -7 7
6 27 18 27 5 0 9 -4 9 -9z m-3510 -26 c20 -24 6 -28 -15 -5 -10 11 -13 20 -8
20 6 0 16 -7 23 -15z m1410 -3 c0 -12 -8 -18 -27 -19 -16 0 -20 1 -10 4 11 3
16 11 13 19 -3 8 1 14 9 14 8 0 15 -8 15 -18z m30 8 c0 -5 -4 -10 -10 -10 -5
0 -10 5 -10 10 0 6 5 10 10 10 6 0 10 -4 10 -10z m1037 -6 c-3 -3 -12 -4 -19
-1 -8 3 -5 6 6 6 11 1 17 -2 13 -5z m60 0 c-3 -3 -12 -4 -19 -1 -8 3 -5 6 6 6
11 1 17 -2 13 -5z m933 -3 c0 -6 -5 -13 -10 -16 -6 -4 -8 -15 -5 -25 6 -19
-21 -60 -39 -60 -5 0 -2 8 7 18 17 19 23 42 11 42 -14 0 -33 -36 -34 -62 0
-21 5 -28 19 -28 14 0 18 -5 14 -19 -5 -18 -7 -18 -30 7 -34 36 -26 84 19 123
35 30 48 35 48 20z m483 -52 c-7 -7 -19 -9 -28 -6 -13 6 -13 10 -3 27 11 17
14 18 27 5 11 -11 12 -18 4 -26z m-3694 -35 c-15 -18 -22 -13 -13 10 3 9 10
13 16 10 5 -3 4 -12 -3 -20z m3726 -4 c3 -5 19 -7 36 -3 33 6 74 -11 84 -35 6
-17 -31 -62 -52 -62 -30 0 -75 33 -88 63 -7 18 -11 35 -9 39 7 11 22 10 29 -2z
m-525 -65 c-7 -9 -15 -13 -17 -11 -7 7 7 26 19 26 6 0 6 -6 -2 -15z m38 -30
c2 -6 -4 -14 -13 -20 -11 -7 -18 -6 -25 5 -5 8 -7 17 -5 20 6 10 40 5 43 -5z
m43 1 c-17 -21 -3 -44 32 -52 18 -4 35 -7 40 -6 10 3 8 -21 -4 -38 -8 -11 -12
-12 -16 -2 -2 6 -22 15 -44 18 -22 4 -36 11 -33 16 4 6 0 14 -7 19 -10 6 -11
11 -3 17 6 4 13 15 17 25 3 9 12 17 18 17 9 0 9 -3 0 -14z m-1224 -135 c-9
-31 -20 -76 -25 -101 l-10 -45 -2 45 c-1 39 -3 41 -10 20 -5 -14 -12 -43 -16
-65 -4 -22 -9 -32 -11 -22 -8 33 -26 18 -20 -17 4 -24 1 -39 -9 -47 -12 -10
-14 5 -13 107 1 74 4 104 8 79 l7 -40 8 55 c9 54 9 54 15 20 l7 -35 7 28 c4
15 5 32 1 38 -3 6 9 24 26 41 30 28 34 29 43 13 6 -12 5 -35 -6 -74z m1078 79
c-3 -5 -17 -10 -31 -10 -14 0 -22 4 -19 10 3 6 17 10 31 10 14 0 22 -4 19 -10z
m691 -3 c0 -1 10 -15 22 -31 31 -40 16 -53 -22 -19 -17 16 -38 29 -46 28 -8
-1 -23 -3 -34 -3 -16 -2 -17 -7 -11 -39 4 -21 11 -43 17 -50 5 -7 18 -28 28
-48 l19 -36 -25 16 c-29 19 -31 9 -4 -23 11 -13 24 -21 30 -17 22 14 30 -7 10
-25 -12 -10 -21 -22 -20 -26 1 -5 -3 -10 -9 -12 -6 -2 -11 5 -11 17 0 11 -4
23 -10 26 -5 3 -10 15 -10 26 0 10 -4 19 -9 19 -12 0 -34 66 -28 83 2 6 -2 27
-9 46 -21 51 -18 59 29 70 34 7 89 6 93 -2z m-1831 -17 c3 -5 1 -10 -4 -10 -6
0 -11 5 -11 10 0 6 2 10 4 10 3 0 8 -4 11 -10z m-931 -25 c-3 -8 2 -38 12 -67
10 -29 19 -57 20 -63 10 -46 47 -141 68 -173 14 -22 55 -70 91 -106 36 -35 65
-67 65 -70 0 -3 -8 -6 -18 -6 -10 0 -23 -5 -28 -10 -13 -13 -44 -3 -44 14 -1
6 -25 31 -55 55 -40 33 -55 52 -60 79 -4 20 -15 48 -26 63 -10 15 -19 34 -19
42 0 9 -4 18 -9 22 -5 3 -13 -20 -16 -50 -5 -33 -15 -65 -27 -78 l-19 -22 6
37 c3 20 8 60 11 89 3 29 8 57 11 63 4 6 -3 2 -15 -8 -12 -11 -22 -27 -22 -38
0 -25 -42 -91 -76 -117 -15 -11 -37 -21 -50 -21 -13 0 -27 -6 -31 -13 -4 -7
-21 -19 -38 -26 -23 -11 -26 -15 -12 -18 23 -6 22 -19 -4 -36 -14 -10 -30 -12
-54 -7 -22 5 -33 4 -32 -2 1 -6 -13 -19 -31 -29 l-33 -19 -27 25 c-15 14 -30
25 -34 25 -4 0 0 13 9 28 26 46 70 68 148 75 52 5 81 14 118 37 26 16 52 30
56 30 4 0 7 9 8 21 1 11 14 36 28 56 15 19 33 62 41 96 25 109 40 137 76 137
11 0 15 -5 12 -15z m2303 -97 c-3 -10 -1 -18 4 -18 16 0 39 -58 39 -97 0 -22
-7 -66 -16 -98 -9 -33 -20 -76 -25 -96 -4 -19 -15 -48 -23 -64 -10 -20 -12
-34 -5 -47 8 -15 4 -18 -29 -24 -24 -4 -43 -14 -52 -27 -12 -20 -12 -21 4 -8
9 8 20 11 24 7 4 -4 -5 -18 -20 -30 -16 -12 -28 -25 -28 -28 0 -11 -42 -69
-73 -103 -50 -53 -114 -141 -122 -166 -4 -13 -11 -29 -16 -34 -14 -19 -3 -119
18 -152 40 -66 122 -105 218 -102 85 2 306 51 335 75 8 6 25 15 37 18 12 4 36
17 55 29 43 30 178 66 178 48 0 -11 -71 -81 -83 -81 -5 0 -21 -8 -35 -18 -134
-93 -372 -174 -501 -171 -136 3 -272 88 -306 189 -9 27 -20 52 -25 55 -9 6
-66 -25 -115 -61 -17 -13 -59 -36 -95 -52 -36 -16 -85 -38 -110 -50 -81 -37
-210 -62 -319 -62 -69 0 -101 -4 -101 -11 0 -14 -24 -34 -65 -54 -16 -8 -52
-28 -80 -44 -84 -50 -152 -79 -238 -102 -45 -12 -92 -28 -104 -35 -13 -8 -23
-12 -23 -8 0 4 -6 1 -14 -5 -8 -6 -27 -13 -42 -16 -37 -5 -151 -32 -234 -55
-36 -10 -91 -26 -124 -35 -49 -14 -72 -28 -135 -88 -82 -77 -165 -150 -219
-193 -45 -36 -202 -70 -225 -48 -9 9 54 60 98 78 22 10 55 31 73 49 18 18 36
31 40 30 4 -2 47 34 95 80 49 45 96 86 105 91 10 5 31 21 47 37 17 16 60 40
95 54 36 14 74 30 85 35 11 5 70 21 132 34 61 14 126 31 145 39 18 8 51 17 73
21 42 7 79 19 132 42 17 8 36 14 42 14 19 0 172 76 229 114 58 37 111 53 212
61 36 2 85 9 110 15 25 6 59 13 75 16 17 3 57 18 90 33 33 16 78 34 100 41 22
7 51 21 64 31 31 25 21 24 -25 -1 -20 -12 -39 -19 -42 -15 -7 6 -8 5 51 33 27
12 53 20 58 17 5 -4 9 -1 9 4 0 6 9 11 20 11 18 0 420 385 420 403 0 5 22 36
50 69 27 34 47 65 45 69 -3 4 2 12 10 19 8 7 15 19 15 26 0 7 12 48 26 91 28
87 27 121 -6 197 -22 49 -19 76 7 55 8 -7 12 -21 10 -31z m839 -163 c0 -18 -3
-32 -8 -29 -10 6 -11 64 0 64 4 0 7 -16 8 -35z m-378 -7 c7 -7 12 -21 12 -31
0 -10 13 -31 28 -46 28 -26 53 -96 52 -151 0 -14 3 -77 6 -140 9 -182 -15
-350 -51 -354 -6 -1 -11 71 -13 194 -2 186 -20 357 -43 417 -7 19 -7 29 0 31
15 5 14 23 -1 20 -7 -2 -13 12 -15 35 -3 38 4 46 25 25z m-3242 -271 c-2 -7
-5 -4 -5 6 -1 17 -3 17 -30 -2 -35 -25 -41 -26 -41 -6 0 9 15 22 33 30 27 11
33 11 40 -1 5 -8 6 -20 3 -27z m64 -4 c0 -3 -7 -11 -15 -17 -13 -9 -21 -42
-24 -100 -1 -6 -6 -5 -12 1 -19 19 -16 89 5 111 15 18 46 21 46 5z m4240 -183
c0 -5 -5 -10 -11 -10 -5 0 -7 5 -4 10 3 6 8 10 11 10 2 0 4 -4 4 -10z m-3545
-1630 c-10 -11 -27 -20 -39 -20 -11 0 -61 -3 -110 -6 -59 -4 -87 -3 -83 3 9
15 50 24 142 32 44 4 86 8 94 9 10 2 9 -3 -4 -18z"/>
<path d="M5876 6845 c-9 -26 -7 -32 5 -12 6 10 9 21 6 23 -2 3 -7 -2 -11 -11z"/>
<path d="M7510 6230 c0 -5 5 -10 10 -10 6 0 10 5 10 10 0 6 -4 10 -10 10 -5 0
-10 -4 -10 -10z"/>
<path d="M3380 6390 c0 -11 7 -20 15 -20 13 0 14 4 5 20 -6 11 -13 20 -15 20
-3 0 -5 -9 -5 -20z"/>
<path d="M7100 6266 c0 -28 35 -45 53 -27 16 16 -3 45 -32 49 -17 3 -21 -2
-21 -22z"/>
<path d="M5331 5964 c0 -11 3 -14 6 -6 3 7 2 16 -1 19 -3 4 -6 -2 -5 -13z"/>
<path d="M7070 6026 c0 -8 5 -18 10 -21 6 -3 10 3 10 14 0 12 -4 21 -10 21 -5
0 -10 -6 -10 -14z"/>
<path d="M4181 7461 c-9 -17 -7 -18 22 -16 18 1 31 5 30 9 -2 3 -3 11 -3 16 0
18 -39 11 -49 -9z"/>
<path d="M6375 7470 c3 -5 8 -10 11 -10 2 0 4 5 4 10 0 6 -5 10 -11 10 -5 0
-7 -4 -4 -10z"/>
<path d="M6697 7473 c-12 -11 -8 -23 8 -23 8 0 15 7 15 15 0 16 -12 20 -23 8z"/>
<path d="M3584 7455 c11 -8 22 -12 25 -9 6 6 -19 24 -34 24 -5 -1 -1 -7 9 -15z"/>
<path d="M6075 7460 c-4 -6 5 -10 19 -10 14 0 26 5 26 10 0 6 -9 10 -19 10
-11 0 -23 -4 -26 -10z"/>
<path d="M5035 7440 c3 -5 11 -10 16 -10 6 0 7 5 4 10 -3 6 -11 10 -16 10 -6
0 -7 -4 -4 -10z"/>
<path d="M5728 7443 c6 -2 18 -2 25 0 6 3 1 5 -13 5 -14 0 -19 -2 -12 -5z"/>
<path d="M3552 7406 c-18 -5 -30 -15 -28 -22 2 -6 -9 -21 -25 -33 -21 -15 -29
-30 -29 -51 0 -37 29 -100 47 -100 7 0 13 -4 13 -10 0 -5 9 -10 19 -10 11 0
22 -4 25 -9 7 -10 44 -3 63 12 7 5 22 7 33 4 15 -4 20 0 20 16 0 12 11 40 25
61 28 46 24 61 -37 119 -43 40 -56 45 -64 22 -4 -8 -11 -15 -16 -15 -6 0 -5 6
2 15 15 18 3 18 -48 1z"/>
<path d="M5510 7416 c0 -2 7 -6 15 -10 8 -3 15 -1 15 4 0 6 -7 10 -15 10 -8 0
-15 -2 -15 -4z"/>
<path d="M6180 7400 c6 -11 15 -18 21 -14 6 4 6 11 -2 20 -17 21 -31 17 -19
-6z"/>
<path d="M6044 7365 c-4 -9 -4 -18 -1 -21 10 -10 97 -15 97 -6 0 5 -6 10 -12
9 -37 -1 -58 4 -55 14 4 18 -22 22 -29 4z"/>
<path d="M6166 7371 c-4 -7 -5 -15 -2 -18 9 -9 19 4 14 18 -4 11 -6 11 -12 0z"/>
<path d="M3970 7327 c0 -34 9 -38 31 -16 22 22 17 39 -12 39 -13 0 -19 -7 -19
-23z"/>
<path d="M3156 7285 c4 -8 8 -15 10 -15 2 0 4 7 4 15 0 8 -4 15 -10 15 -5 0
-7 -7 -4 -15z"/>
<path d="M6585 7290 c-3 -5 -1 -10 4 -10 6 0 11 5 11 10 0 6 -2 10 -4 10 -3 0
-8 -4 -11 -10z"/>
<path d="M3750 7261 c0 -22 16 -27 40 -11 17 10 14 15 -17 24 -19 6 -23 3 -23
-13z"/>
<path d="M3148 7253 c7 -3 16 -2 19 1 4 3 -2 6 -13 5 -11 0 -14 -3 -6 -6z"/>
<path d="M6918 7223 c-24 -6 -23 -23 2 -23 11 0 20 7 20 15 0 8 -1 14 -2 14
-2 -1 -11 -3 -20 -6z"/>
<path d="M7322 7190 c0 -14 2 -19 5 -12 2 6 2 18 0 25 -3 6 -5 1 -5 -13z"/>
<path d="M3895 7170 c3 -5 8 -10 11 -10 2 0 4 5 4 10 0 6 -5 10 -11 10 -5 0
-7 -4 -4 -10z"/>
<path d="M3164 7133 c-29 -6 -30 -63 -2 -63 15 0 18 5 13 20 -4 13 -1 22 9 26
16 6 23 25 9 23 -5 -1 -17 -4 -29 -6z"/>
<path d="M3546 7110 c-9 -17 -13 -30 -8 -30 10 0 37 48 31 55 -3 2 -13 -9 -23
-25z"/>
<path d="M3700 7130 c0 -5 5 -10 11 -10 5 0 7 5 4 10 -3 6 -8 10 -11 10 -2 0
-4 -4 -4 -10z"/>
<path d="M7161 7117 c-6 -8 -14 -29 -18 -48 -6 -30 -5 -33 10 -21 15 13 33 69
24 78 -2 2 -9 -2 -16 -9z"/>
<path d="M3379 7079 c-16 -13 -18 -19 -7 -16 9 3 19 3 22 -1 4 -3 15 -7 25 -9
17 -2 18 0 7 22 -14 30 -17 31 -47 4z"/>
<path d="M3495 7060 c3 -5 8 -10 11 -10 2 0 4 5 4 10 0 6 -5 10 -11 10 -5 0
-7 -4 -4 -10z"/>
<path d="M2630 7015 c0 -17 4 -23 15 -19 11 5 12 11 4 25 -13 26 -19 24 -19
-6z"/>
<path d="M3337 7023 c-10 -10 -8 -25 2 -18 5 3 13 0 17 -6 5 -8 9 -7 15 2 13
22 -15 41 -34 22z"/>
<path d="M3331 6981 c-8 -6 -9 -11 -3 -15 6 -3 14 -1 17 5 9 14 2 20 -14 10z"/>
<path d="M7170 6963 c0 -5 7 -16 15 -26 15 -21 56 -20 63 2 3 10 -1 12 -16 9
-12 -4 -26 0 -33 8 -12 15 -29 19 -29 7z"/>
<path d="M3250 6910 c0 -5 -7 -10 -15 -10 -8 0 -15 -4 -15 -10 0 -5 7 -10 15
-10 8 0 15 -4 15 -9 0 -6 9 -9 20 -8 11 1 20 7 20 15 0 7 4 11 9 8 5 -4 7 3 4
14 -5 21 -53 30 -53 10z"/>
<path d="M7260 6879 c0 -5 5 -7 10 -4 6 3 10 8 10 11 0 2 -4 4 -10 4 -5 0 -10
-5 -10 -11z"/>
<path d="M7287 6844 c23 -17 44 -18 37 0 -3 7 -16 14 -30 14 -23 0 -23 -2 -7
-14z"/>
<path d="M3305 6840 c-3 -5 -1 -10 4 -10 6 0 11 5 11 10 0 6 -2 10 -4 10 -3 0
-8 -4 -11 -10z"/>
<path d="M2921 6734 c0 -11 3 -14 6 -6 3 7 2 16 -1 19 -3 4 -6 -2 -5 -13z"/>
<path d="M3018 6742 c-10 -2 -18 -9 -18 -15 0 -19 18 -42 26 -34 4 4 13 2 20
-4 8 -7 14 -7 19 1 3 5 -1 10 -10 10 -10 0 -15 6 -12 13 7 20 -5 34 -25 29z"/>
<path d="M2783 6335 c0 -8 4 -12 9 -9 4 3 8 9 8 15 0 5 -4 9 -8 9 -5 0 -9 -7
-9 -15z"/>
<path d="M2740 6260 c0 -5 7 -10 15 -10 8 0 15 5 15 10 0 6 -7 10 -15 10 -8 0
-15 -4 -15 -10z"/>
<path d="M8262 5498 c-14 -14 -16 -38 -3 -38 8 0 23 41 17 47 -1 1 -8 -3 -14
-9z"/>
<path d="M7255 4330 c-22 -10 -47 -19 -55 -19 -8 -1 -37 -12 -65 -25 -76 -37
-160 -63 -320 -100 -5 -1 -19 -5 -30 -9 -11 -3 -101 -13 -200 -22 -229 -20
-383 -49 -560 -105 -55 -18 -136 -42 -180 -55 -44 -12 -105 -32 -135 -44 -30
-11 -62 -21 -70 -21 -8 -1 -32 -9 -53 -19 -29 -13 -35 -20 -23 -24 9 -4 16
-14 16 -23 0 -48 120 -200 199 -252 101 -67 196 -87 481 -100 l154 -7 7 -32
c3 -18 11 -39 16 -45 5 -7 20 -40 33 -73 39 -98 86 -162 145 -201 89 -56 147
-46 204 36 28 42 33 59 34 107 1 63 -4 92 -22 136 -22 56 -18 59 62 53 39 -4
99 -8 132 -11 33 -2 83 -9 110 -14 28 -6 102 -9 165 -8 111 2 118 3 190 40 46
23 104 64 150 107 41 39 78 70 81 70 5 0 72 78 145 169 31 40 113 193 122 231
9 37 24 151 21 154 -2 3 -38 6 -79 7 -41 2 -82 6 -90 10 -14 6 -37 13 -160 43
-71 18 -255 46 -301 46 -20 0 -39 3 -43 7 -13 13 -41 11 -81 -7z"/>
<path d="M4978 3973 c7 -3 16 -2 19 1 4 3 -2 6 -13 5 -11 0 -14 -3 -6 -6z"/>
<path d="M4665 3810 c-3 -5 -2 -10 4 -10 5 0 13 5 16 10 3 6 2 10 -4 10 -5 0
-13 -4 -16 -10z"/>
</g>
</svg>
